Fraunces-144ptS000Thin.ufo
<glyph name="exclam" format="2">
  <advance width="295"/>
  <unicode hex="0021"/>
  <outline>
    <contour>
      <point x="148" y="1426" type="curve" smooth="yes"/>
      <point x="127" y="1426"/>
      <point x="116" y="1416"/>
      <point x="116" y="1401" type="curve" smooth="yes"/>
      <point x="116" y="1385"/>
      <point x="117" y="1380"/>
      <point x="117" y="1371" type="curve" smooth="yes"/>
      <point x="144" y="350" type="line" smooth="yes"/>
      <point x="144" y="348"/>
      <point x="145" y="346"/>
      <point x="147" y="346" type="curve" smooth="yes"/>
      <point x="149" y="346"/>
      <point x="150" y="348"/>
      <point x="150" y="350" type="curve" smooth="yes"/>
      <point x="177" y="1371" type="line" smooth="yes"/>
      <point x="177" y="1383"/>
      <point x="178" y="1391"/>
      <point x="178" y="1399" type="curve" smooth="yes"/>
      <point x="178" y="1413"/>
      <point x="170" y="1426"/>
    </contour>
    <component base="period" xOffset="26" yOffset="11"/>
  </outline>
</glyph>
<glyph name="dollar" format="2">
  <advance width="938"/>
  <unicode hex="0024"/>
  <outline>
    <contour>
      <point x="497" y="1390" type="curve" smooth="yes"/>
      <point x="264.057591623" y="1390"/>
      <point x="105" y="1237"/>
      <point x="105" y="1049" type="curve" smooth="yes"/>
      <point x="105" y="872"/>
      <point x="201.4727003483" y="764.4355595715"/>
      <point x="476" y="662" type="curve" smooth="yes"/>
      <point x="707.7486001022" y="575.0942749617"/>
      <point x="796" y="483.5882352941"/>
      <point x="796" y="325" type="curve" smooth="yes"/>
      <point x="796" y="129.0918032787"/>
      <point x="668" y="17"/>
      <point x="478" y="17" type="curve" smooth="yes"/>
      <point x="284" y="17"/>
      <point x="168" y="139"/>
      <point x="168" y="297" type="curve" smooth="yes"/>
      <point x="168" y="344" type="line" smooth="yes"/>
      <point x="168" y="369"/>
      <point x="155" y="384"/>
      <point x="131" y="384" type="curve" smooth="yes"/>
      <point x="111" y="384"/>
      <point x="96" y="360"/>
      <point x="96" y="327" type="curve" smooth="yes"/>
      <point x="96" y="153"/>
      <point x="267" y="7"/>
      <point x="478" y="7" type="curve" smooth="yes"/>
      <point x="700" y="7"/>
      <point x="838" y="145.7272727273"/>
      <point x="838" y="334" type="curve" smooth="yes"/>
      <point x="838" y="506.3429319372"/>
      <point x="747" y="620"/>
      <point x="481" y="719" type="curve" smooth="yes"/>
      <point x="239.6857230351" y="809.3644952039"/>
      <point x="144" y="912"/>
      <point x="144" y="1057" type="curve" smooth="yes"/>
      <point x="144" y="1244"/>
      <point x="283.9766081871" y="1380"/>
      <point x="496" y="1380" type="curve" smooth="yes"/>
      <point x="669.2081784387" y="1380"/>
      <point x="775" y="1271"/>
      <point x="775" y="1124" type="curve" smooth="yes"/>
      <point x="775" y="1094" type="line" smooth="yes"/>
      <point x="775" y="1069"/>
      <point x="789" y="1051"/>
      <point x="813" y="1051" type="curve" smooth="yes"/>
      <point x="833" y="1051"/>
      <point x="849" y="1068"/>
      <point x="849" y="1103" type="curve" smooth="yes"/>
      <point x="849" y="1265"/>
      <point x="711.081871345" y="1390"/>
    </contour>
    <contour>
      <point x="483" y="703" type="line"/>
      <point x="483" y="1293"/>
      <point x="495" y="1399"/>
      <point x="495" y="1446" type="curve" smooth="yes"/>
      <point x="495" y="1463"/>
      <point x="489" y="1472"/>
      <point x="479" y="1472" type="curve" smooth="yes"/>
      <point x="468" y="1472"/>
      <point x="462" y="1463"/>
      <point x="462" y="1447" type="curve" smooth="yes"/>
      <point x="462" y="1393"/>
      <point x="473" y="1292"/>
      <point x="473" y="703" type="curve"/>
    </contour>
    <contour>
      <point x="473" y="682" type="line"/>
      <point x="473" y="90"/>
      <point x="462" y="-11"/>
      <point x="462" y="-65" type="curve" smooth="yes"/>
      <point x="462" y="-80"/>
      <point x="468" y="-87"/>
      <point x="479" y="-87" type="curve" smooth="yes"/>
      <point x="489" y="-87"/>
      <point x="495" y="-79"/>
      <point x="495" y="-64" type="curve" smooth="yes"/>
      <point x="495" y="-17"/>
      <point x="483" y="89"/>
      <point x="483" y="682" type="curve"/>
    </contour>
  </outline>
</glyph>
<glyph name="ampersand" format="2">
  <advance width="1617"/>
  <unicode hex="0026"/>
  <outline>
    <contour>
      <point x="1170" y="-22" type="curve" smooth="yes"/>
      <point x="1009" y="-22"/>
      <point x="898" y="70"/>
      <point x="754" y="282" type="curve" smooth="yes"/>
      <point x="619" y="481"/>
      <point x="557" y="675"/>
      <point x="557" y="874" type="curve" smooth="yes"/>
      <point x="557" y="1059"/>
      <point x="662" y="1210"/>
      <point x="832" y="1210" type="curve" smooth="yes"/>
      <point x="941" y="1210"/>
      <point x="1019" y="1125"/>
      <point x="1019" y="1006" type="curve" smooth="yes"/>
      <point x="1019" y="785"/>
      <point x="849" y="669"/>
      <point x="618" y="639" type="curve"/>
      <point x="616" y="642" type="line"/>
      <point x="811" y="672"/>
      <point x="967" y="771"/>
      <point x="967" y="1006" type="curve" smooth="yes"/>
      <point x="967" y="1121"/>
      <point x="917" y="1201"/>
      <point x="825" y="1201" type="curve" smooth="yes"/>
      <point x="708" y="1201"/>
      <point x="604" y="1084"/>
      <point x="604" y="877" type="curve" smooth="yes"/>
      <point x="604" y="704"/>
      <point x="675" y="480"/>
      <point x="799" y="304" type="curve" smooth="yes"/>
      <point x="944" y="98"/>
      <point x="1048" y="9"/>
      <point x="1181" y="9" type="curve" smooth="yes"/>
      <point x="1366" y="9"/>
      <point x="1489" y="140"/>
      <point x="1489" y="408" type="curve" smooth="yes"/>
      <point x="1489" y="672"/>
      <point x="1411" y="923"/>
      <point x="1265" y="1108" type="curve" smooth="yes"/>
      <point x="1101" y="1317"/>
      <point x="898" y="1440"/>
      <point x="680" y="1440" type="curve" smooth="yes"/>
      <point x="387" y="1440"/>
      <point x="212" y="1260"/>
      <point x="212" y="1026" type="curve" smooth="yes"/>
      <point x="212" y="913"/>
      <point x="324" y="918"/>
      <point x="324" y="846" type="curve" smooth="yes"/>
      <point x="324" y="827"/>
      <point x="312" y="813"/>
      <point x="291" y="813" type="curve" smooth="yes"/>
      <point x="236" y="813"/>
      <point x="195" y="882"/>
      <point x="195" y="1003" type="curve" smooth="yes"/>
      <point x="195" y="1276"/>
      <point x="396" y="1450"/>
      <point x="681" y="1450" type="curve" smooth="yes"/>
      <point x="902" y="1450"/>
      <point x="1107" y="1329"/>
      <point x="1275" y="1116" type="curve" smooth="yes"/>
      <point x="1421" y="931"/>
      <point x="1500" y="684"/>
      <point x="1500" y="410" type="curve" smooth="yes"/>
      <point x="1500" y="142"/>
      <point x="1369" y="-22"/>
    </contour>
    <contour>
      <point x="923" y="143" type="line"/>
      <point x="1079" y="295"/>
      <point x="1135" y="419"/>
      <point x="1135" y="504" type="curve" smooth="yes"/>
      <point x="1135" y="569"/>
      <point x="1067" y="597"/>
      <point x="1067" y="642" type="curve" smooth="yes"/>
      <point x="1067" y="665"/>
      <point x="1082" y="682"/>
      <point x="1105" y="682" type="curve" smooth="yes"/>
      <point x="1137" y="682"/>
      <point x="1164" y="653"/>
      <point x="1164" y="589" type="curve" smooth="yes"/>
      <point x="1164" y="439"/>
      <point x="1094" y="297"/>
      <point x="928" y="139" type="curve"/>
    </contour>
    <contour>
      <point x="589" y="644" type="line"/>
      <point x="363" y="609"/>
      <point x="240" y="431"/>
      <point x="240" y="286" type="curve" smooth="yes"/>
      <point x="240" y="106"/>
      <point x="348" y="-6"/>
      <point x="544" y="-6" type="curve" smooth="yes"/>
      <point x="722" y="-6"/>
      <point x="825" y="53"/>
      <point x="902" y="123" type="curve"/>
      <point x="907" y="120" type="line"/>
      <point x="820" y="37"/>
      <point x="696" y="-22"/>
      <point x="517" y="-22" type="curve" smooth="yes"/>
      <point x="303" y="-22"/>
      <point x="182" y="86"/>
      <point x="182" y="250" type="curve" smooth="yes"/>
      <point x="182" y="443"/>
      <point x="317" y="615"/>
      <point x="591" y="647" type="curve"/>
    </contour>
  </outline>
</glyph>
<glyph name="one" format="2">
  <advance width="633"/>
  <unicode hex="0031"/>
  <outline>
    <contour>
      <point x="86" y="1334" type="line" smooth="yes"/>
      <point x="81" y="1334"/>
      <point x="79" y="1337"/>
      <point x="79" y="1339" type="curve" smooth="yes"/>
      <point x="79" y="1342"/>
      <point x="82" y="1344"/>
      <point x="86" y="1344" type="curve" smooth="yes"/>
      <point x="270" y="1351" type="line" smooth="yes"/>
      <point x="303" y="1352"/>
      <point x="318" y="1361"/>
      <point x="340" y="1430" type="curve" smooth="yes"/>
      <point x="344" y="1442"/>
      <point x="347" y="1446"/>
      <point x="351" y="1446" type="curve" smooth="yes"/>
      <point x="357" y="1446"/>
      <point x="358" y="1442"/>
      <point x="358" y="1435" type="curve" smooth="yes"/>
      <point x="358" y="56" type="line" smooth="yes"/>
      <point x="358" y="44"/>
      <point x="368" y="36"/>
      <point x="380" y="34" type="curve" smooth="yes"/>
      <point x="564" y="9" type="line" smooth="yes"/>
      <point x="569" y="8"/>
      <point x="572" y="8"/>
      <point x="572" y="5" type="curve" smooth="yes"/>
      <point x="572" y="1"/>
      <point x="570" y="0"/>
      <point x="564" y="0" type="curve" smooth="yes"/>
      <point x="86" y="0" type="line" smooth="yes"/>
      <point x="82" y="0"/>
      <point x="78" y="3"/>
      <point x="78" y="6" type="curve" smooth="yes"/>
      <point x="78" y="10"/>
      <point x="81" y="11"/>
      <point x="86" y="12" type="curve" smooth="yes"/>
      <point x="278" y="34" type="line" smooth="yes"/>
      <point x="290" y="35"/>
      <point x="300" y="42"/>
      <point x="300" y="55" type="curve" smooth="yes"/>
      <point x="300" y="1299" type="line" smooth="yes"/>
      <point x="300" y="1319"/>
      <point x="291" y="1327"/>
      <point x="278" y="1327" type="curve" smooth="yes"/>
    </contour>
  </outline>
</glyph>
<glyph name="seven" format="2">
  <advance width="820"/>
  <unicode hex="0037"/>
  <outline>
    <contour>
      <point x="774" y="1355" type="line"/>
      <point x="408" y="636" type="line" smooth="yes"/>
      <point x="313" y="449"/>
      <point x="281" y="292"/>
      <point x="281" y="145" type="curve" smooth="yes"/>
      <point x="281" y="37"/>
      <point x="304" y="-10"/>
      <point x="337" y="-10" type="curve" smooth="yes"/>
      <point x="362" y="-10"/>
      <point x="377" y="8"/>
      <point x="379" y="41" type="curve" smooth="yes"/>
      <point x="379" y="91"/>
      <point x="310" y="166"/>
      <point x="310" y="247" type="curve" smooth="yes"/>
      <point x="310" y="350"/>
      <point x="350" y="490"/>
      <point x="420" y="629" type="curve" smooth="yes"/>
      <point x="799" y="1380" type="line" smooth="yes"/>
      <point x="802" y="1386"/>
      <point x="804" y="1391"/>
      <point x="804" y="1395" type="curve" smooth="yes"/>
      <point x="804" y="1398"/>
      <point x="802" y="1400"/>
      <point x="797" y="1400" type="curve" smooth="yes"/>
      <point x="70" y="1400" type="line" smooth="yes"/>
      <point x="64" y="1400"/>
      <point x="62" y="1397"/>
      <point x="61" y="1391" type="curve" smooth="yes"/>
      <point x="29" y="1201" type="line" smooth="yes"/>
      <point x="28" y="1195"/>
      <point x="29" y="1192"/>
      <point x="32" y="1192" type="curve" smooth="yes"/>
      <point x="36" y="1192"/>
      <point x="40" y="1195"/>
      <point x="42" y="1200" type="curve" smooth="yes"/>
      <point x="83" y="1331" type="line" smooth="yes"/>
      <point x="86" y="1339"/>
      <point x="93" y="1346"/>
      <point x="101" y="1346" type="curve" smooth="yes"/>
      <point x="778" y="1346" type="line"/>
    </contour>
  </outline>
</glyph>
<glyph name="L" format="2">
  <advance width="988"/>
  <unicode hex="004C"/>
  <anchor x="545.0" y="1478.0" name="center"/>
  <anchor x="861" y="1476" name="right"/>
  <outline>
    <contour>
      <point x="434" y="1392" type="line" smooth="yes"/>
      <point x="438" y="1392"/>
      <point x="440" y="1394"/>
      <point x="440" y="1396" type="curve" smooth="yes"/>
      <point x="440" y="1398"/>
      <point x="438" y="1400"/>
      <point x="434" y="1400" type="curve" smooth="yes"/>
      <point x="84" y="1400" type="line" smooth="yes"/>
      <point x="80" y="1400"/>
      <point x="78" y="1398"/>
      <point x="78" y="1396" type="curve" smooth="yes"/>
      <point x="78" y="1394"/>
      <point x="80" y="1392"/>
      <point x="84" y="1392" type="curve" smooth="yes"/>
      <point x="202" y="1376" type="line" smooth="yes"/>
      <point x="222" y="1374"/>
      <point x="230" y="1368"/>
      <point x="230" y="1352" type="curve" smooth="yes"/>
      <point x="230" y="48" type="line" smooth="yes"/>
      <point x="230" y="32"/>
      <point x="222" y="26"/>
      <point x="202" y="24" type="curve" smooth="yes"/>
      <point x="84" y="8" type="line" smooth="yes"/>
      <point x="80" y="8"/>
      <point x="78" y="6"/>
      <point x="78" y="4" type="curve" smooth="yes"/>
      <point x="78" y="2"/>
      <point x="80" y="0"/>
      <point x="84" y="0" type="curve" smooth="yes"/>
      <point x="756" y="0" type="line" smooth="yes"/>
      <point x="832" y="0"/>
      <point x="848" y="-34"/>
      <point x="866" y="-34" type="curve" smooth="yes"/>
      <point x="868" y="-34"/>
      <point x="870" y="-32"/>
      <point x="874" y="-18" type="curve" smooth="yes"/>
      <point x="960" y="310" type="line" smooth="yes"/>
      <point x="962" y="316"/>
      <point x="962" y="322"/>
      <point x="958" y="322" type="curve" smooth="yes"/>
      <point x="954" y="322"/>
      <point x="952" y="318"/>
      <point x="950" y="314" type="curve" smooth="yes"/>
      <point x="896" y="168" type="line" smooth="yes"/>
      <point x="849" y="42"/>
      <point x="810" y="12"/>
      <point x="716" y="12" type="curve" smooth="yes"/>
      <point x="336" y="12" type="line" smooth="yes"/>
      <point x="304" y="12"/>
      <point x="288" y="24"/>
      <point x="288" y="48" type="curve" smooth="yes"/>
      <point x="288" y="1352" type="line" smooth="yes"/>
      <point x="288" y="1368"/>
      <point x="296" y="1374"/>
      <point x="316" y="1376" type="curve" smooth="yes"/>
    </contour>
  </outline>
</glyph>
<glyph name="bracketleft" format="2">
  <advance width="480"/>
  <unicode hex="005B"/>
  <outline>
    <contour>
      <point x="228" y="1432" type="line" smooth="yes"/>
      <point x="228" y="1436"/>
      <point x="230" y="1438"/>
      <point x="234" y="1438" type="curve" smooth="yes"/>
      <point x="464" y="1438" type="line" smooth="yes"/>
      <point x="467" y="1438"/>
      <point x="470" y="1439"/>
      <point x="470" y="1443" type="curve" smooth="yes"/>
      <point x="470" y="1447"/>
      <point x="467" y="1448"/>
      <point x="464" y="1448" type="curve" smooth="yes"/>
      <point x="180" y="1448" type="line" smooth="yes"/>
      <point x="174" y="1448"/>
      <point x="170" y="1444"/>
      <point x="170" y="1437" type="curve" smooth="yes"/>
      <point x="170" y="-213" type="line" smooth="yes"/>
      <point x="170" y="-220"/>
      <point x="174" y="-224"/>
      <point x="180" y="-224" type="curve" smooth="yes"/>
      <point x="464" y="-224" type="line" smooth="yes"/>
      <point x="467" y="-224"/>
      <point x="470" y="-223"/>
      <point x="470" y="-219" type="curve" smooth="yes"/>
      <point x="470" y="-215"/>
      <point x="467" y="-214"/>
      <point x="464" y="-214" type="curve" smooth="yes"/>
      <point x="234" y="-214" type="line" smooth="yes"/>
      <point x="230" y="-214"/>
      <point x="228" y="-212"/>
      <point x="228" y="-208" type="curve" smooth="yes"/>
    </contour>
  </outline>
</glyph>
<glyph name="a" format="2">
  <advance width="774"/>
  <unicode hex="0061"/>
  <anchor x="384.0" y="942.0" name="center"/>
  <outline>
    <contour>
      <point x="581" y="92" type="line" smooth="yes"/>
      <point x="581" y="22"/>
      <point x="617" y="-15"/>
      <point x="676" y="-15" type="curve" smooth="yes"/>
      <point x="720" y="-15.0"/>
      <point x="745.0" y="10"/>
      <point x="745" y="34" type="curve" smooth="yes"/>
      <point x="745" y="36"/>
      <point x="744" y="38"/>
      <point x="742" y="38" type="curve" smooth="yes"/>
      <point x="740" y="38"/>
      <point x="738" y="36"/>
      <point x="738" y="34" type="curve" smooth="yes"/>
      <point x="735" y="11"/>
      <point x="715" y="-4.0"/>
      <point x="687" y="-4" type="curve" smooth="yes"/>
      <point x="656" y="-4"/>
      <point x="634" y="20"/>
      <point x="634" y="90" type="curve" smooth="yes"/>
      <point x="634" y="646" type="line" smooth="yes"/>
      <point x="634" y="784"/>
      <point x="556" y="872"/>
      <point x="392" y="872" type="curve" smooth="yes"/>
      <point x="215" y="872"/>
      <point x="114" y="783"/>
      <point x="114" y="688" type="curve" smooth="yes"/>
      <point x="114" y="656"/>
      <point x="130" y="638"/>
      <point x="150" y="638" type="curve" smooth="yes"/>
      <point x="170" y="638"/>
      <point x="188" y="650"/>
      <point x="188" y="682" type="curve" smooth="yes"/>
      <point x="188" y="726" type="line" smooth="yes"/>
      <point x="188" y="785"/>
      <point x="247" y="864"/>
      <point x="388" y="864" type="curve" smooth="yes"/>
      <point x="520" y="864"/>
      <point x="580" y="777"/>
      <point x="580" y="610" type="curve" smooth="yes"/>
      <point x="580" y="94" type="line"/>
      <point x="581" y="94" type="line"/>
    </contour>
    <contour>
      <point x="176" y="402"/>
      <point x="72" y="306"/>
      <point x="72" y="186" type="curve" smooth="yes"/>
      <point x="72" y="66"/>
      <point x="162" y="-16"/>
      <point x="308" y="-16" type="curve" smooth="yes"/>
      <point x="422" y="-16"/>
      <point x="528" y="27"/>
      <point x="592" y="104" type="curve"/>
      <point x="586" y="108" type="line"/>
      <point x="524" y="36"/>
      <point x="432" y="4"/>
      <point x="340" y="4" type="curve" smooth="yes"/>
      <point x="216" y="4"/>
      <point x="134" y="84"/>
      <point x="134" y="198" type="curve" smooth="yes"/>
      <point x="134" y="310"/>
      <point x="216" y="394"/>
      <point x="378" y="394" type="curve" smooth="yes"/>
      <point x="468" y="394"/>
      <point x="542" y="370"/>
      <point x="608" y="344" type="curve"/>
      <point x="612" y="350" type="line"/>
      <point x="544" y="376"/>
      <point x="470" y="402"/>
      <point x="354" y="402" type="curve" smooth="yes"/>
    </contour>
  </outline>
</glyph>
<glyph name="h" format="2">
  <advance width="910"/>
  <unicode hex="0068"/>
  <anchor x="464" y="1106" name="center"/>
  <outline>
    <contour>
      <point x="214" y="1438" type="line" smooth="yes"/>
      <point x="214.0" y="1442.0"/>
      <point x="212" y="1446"/>
      <point x="208" y="1446" type="curve" smooth="yes"/>
      <point x="206" y="1446"/>
      <point x="204" y="1446"/>
      <point x="198" y="1444" type="curve" smooth="yes"/>
      <point x="50" y="1402" type="line" smooth="yes"/>
      <point x="46" y="1401"/>
      <point x="44" y="1400"/>
      <point x="44" y="1396" type="curve" smooth="yes"/>
      <point x="44" y="1394"/>
      <point x="46" y="1392"/>
      <point x="48" y="1392" type="curve" smooth="yes"/>
      <point x="152" y="1392" type="line" smooth="yes"/>
      <point x="158" y="1392"/>
      <point x="160.0" y="1388.0"/>
      <point x="160" y="1384" type="curve" smooth="yes"/>
      <point x="160" y="40" type="line" smooth="yes"/>
      <point x="160" y="30"/>
      <point x="152" y="22"/>
      <point x="136" y="20" type="curve" smooth="yes"/>
      <point x="58" y="12" type="line" smooth="yes"/>
      <point x="48" y="10"/>
      <point x="44" y="6"/>
      <point x="44" y="4" type="curve" smooth="yes"/>
      <point x="44" y="2"/>
      <point x="46" y="0"/>
      <point x="48" y="0" type="curve" smooth="yes"/>
      <point x="320" y="0" type="line" smooth="yes"/>
      <point x="324" y="0"/>
      <point x="326" y="2"/>
      <point x="326" y="4" type="curve" smooth="yes"/>
      <point x="326" y="8"/>
      <point x="324" y="10"/>
      <point x="318" y="10" type="curve" smooth="yes"/>
      <point x="238" y="20" type="line" smooth="yes"/>
      <point x="222" y="22"/>
      <point x="214" y="30"/>
      <point x="214" y="42" type="curve" smooth="yes"/>
    </contour>
    <contour>
      <point x="210" y="698" type="line" smooth="yes"/>
      <point x="240" y="726" type="line" smooth="yes"/>
      <point x="329" y="809"/>
      <point x="399" y="844"/>
      <point x="472" y="844" type="curve" smooth="yes"/>
      <point x="585" y="844"/>
      <point x="641" y="768"/>
      <point x="668" y="596" type="curve" smooth="yes"/>
      <point x="753" y="56" type="line" smooth="yes"/>
      <point x="756" y="40"/>
      <point x="747" y="23"/>
      <point x="721" y="20" type="curve" smooth="yes"/>
      <point x="637" y="10" type="line" smooth="yes"/>
      <point x="631" y="9"/>
      <point x="627" y="8"/>
      <point x="627" y="4" type="curve" smooth="yes"/>
      <point x="627" y="2"/>
      <point x="631" y="0"/>
      <point x="635" y="0" type="curve" smooth="yes"/>
      <point x="911" y="0" type="line" smooth="yes"/>
      <point x="915" y="0"/>
      <point x="917" y="2"/>
      <point x="917" y="4" type="curve" smooth="yes"/>
      <point x="917" y="6"/>
      <point x="915" y="8"/>
      <point x="911" y="8" type="curve" smooth="yes"/>
      <point x="847" y="16" type="line" smooth="yes"/>
      <point x="821" y="19"/>
      <point x="810" y="34"/>
      <point x="807" y="56" type="curve" smooth="yes"/>
      <point x="722" y="600" type="line" smooth="yes"/>
      <point x="694" y="780"/>
      <point x="626" y="870"/>
      <point x="500" y="870" type="curve" smooth="yes"/>
      <point x="418" y="870"/>
      <point x="355" y="841"/>
      <point x="236" y="730" type="curve" smooth="yes"/>
      <point x="206" y="702" type="line"/>
    </contour>
  </outline>
</glyph>
<glyph name="o" format="2">
  <advance width="914"/>
  <unicode hex="006F"/>
  <outline>
    <contour>
      <point x="457" y="870" type="curve" smooth="yes"/>
      <point x="212" y="870"/>
      <point x="55" y="687"/>
      <point x="55" y="422" type="curve" smooth="yes"/>
      <point x="55" y="158"/>
      <point x="221" y="-20"/>
      <point x="451" y="-20" type="curve" smooth="yes"/>
      <point x="686" y="-20"/>
      <point x="859" y="158"/>
      <point x="859" y="422" type="curve" smooth="yes"/>
      <point x="859" y="685"/>
      <point x="686" y="870"/>
    </contour>
    <contour>
      <point x="495" y="-8" type="curve" smooth="yes"/>
      <point x="291.157" y="-22.771"/>
      <point x="131" y="133"/>
      <point x="111" y="396" type="curve" smooth="yes"/>
      <point x="90" y="659"/>
      <point x="202.201" y="846.288"/>
      <point x="417" y="861" type="curve" smooth="yes"/>
      <point x="631.675" y="875.771"/>
      <point x="781" y="733"/>
      <point x="801" y="455" type="curve" smooth="yes"/>
      <point x="821" y="183"/>
      <point x="695.086" y="6.712"/>
    </contour>
  </outline>
</glyph>
<glyph name="u" format="2">
  <advance width="903"/>
  <unicode hex="0075"/>
  <anchor x="445.0" y="966.0" name="center"/>
  <outline>
    <contour>
      <point x="714" y="40" type="line" smooth="yes"/>
      <point x="714.0" y="12.0"/>
      <point x="725" y="0"/>
      <point x="744" y="0" type="curve" smooth="yes"/>
      <point x="874" y="0" type="line" smooth="yes"/>
      <point x="878" y="0"/>
      <point x="880" y="2"/>
      <point x="880" y="4" type="curve"/>
      <point x="880" y="8"/>
      <point x="878" y="10"/>
      <point x="872" y="10" type="curve" smooth="yes"/>
      <point x="792" y="20" type="line" smooth="yes"/>
      <point x="776" y="22"/>
      <point x="768" y="30"/>
      <point x="768" y="42" type="curve" smooth="yes"/>
      <point x="768" y="852" type="line" smooth="yes"/>
      <point x="768" y="856"/>
      <point x="766" y="860"/>
      <point x="762" y="860" type="curve" smooth="yes"/>
      <point x="760" y="860"/>
      <point x="758" y="860"/>
      <point x="752" y="858" type="curve" smooth="yes"/>
      <point x="604" y="816" type="line" smooth="yes"/>
      <point x="600" y="814"/>
      <point x="598" y="814"/>
      <point x="598" y="810" type="curve" smooth="yes"/>
      <point x="598" y="808"/>
      <point x="600" y="806"/>
      <point x="602" y="806" type="curve" smooth="yes"/>
      <point x="706" y="806" type="line" smooth="yes"/>
      <point x="712" y="806"/>
      <point x="714" y="802"/>
      <point x="714" y="798" type="curve" smooth="yes"/>
      <point x="714" y="149" type="line"/>
      <point x="714" y="146" type="line"/>
    </contour>
    <contour>
      <point x="160" y="258" type="line" smooth="yes"/>
      <point x="160" y="78"/>
      <point x="268" y="-12"/>
      <point x="410" y="-12" type="curve" smooth="yes"/>
      <point x="498" y="-12"/>
      <point x="574" y="14"/>
      <point x="696" y="128" type="curve" smooth="yes"/>
      <point x="726" y="156" type="line"/>
      <point x="722" y="160" type="line" smooth="yes"/>
      <point x="692" y="132" type="line" smooth="yes"/>
      <point x="600" y="46"/>
      <point x="518" y="14"/>
      <point x="438" y="14" type="curve" smooth="yes"/>
      <point x="308" y="14"/>
      <point x="214" y="90"/>
      <point x="214" y="262" type="curve" smooth="yes"/>
      <point x="214" y="852" type="line" smooth="yes"/>
      <point x="214" y="856"/>
      <point x="212" y="860"/>
      <point x="208" y="860" type="curve" smooth="yes"/>
      <point x="206" y="860"/>
      <point x="204" y="860"/>
      <point x="198" y="858" type="curve" smooth="yes"/>
      <point x="48" y="816" type="line" smooth="yes"/>
      <point x="44" y="814"/>
      <point x="42" y="814"/>
      <point x="42" y="810" type="curve" smooth="yes"/>
      <point x="42" y="808"/>
      <point x="44" y="806"/>
      <point x="46" y="806" type="curve" smooth="yes"/>
      <point x="150" y="806" type="line" smooth="yes"/>
      <point x="158" y="806"/>
      <point x="160" y="802"/>
      <point x="160" y="798" type="curve" smooth="yes"/>
    </contour>
  </outline>
</glyph>
<glyph name="x" format="2">
  <advance width="788"/>
  <unicode hex="0078"/>
  <outline>
    <contour>
      <point x="373" y="427" type="line"/>
      <point x="149" y="99" type="line" smooth="yes"/>
      <point x="113" y="45"/>
      <point x="66" y="19"/>
      <point x="24" y="16" type="curve" smooth="yes"/>
      <point x="12" y="15"/>
      <point x="9" y="11"/>
      <point x="9" y="7" type="curve" smooth="yes"/>
      <point x="9" y="3"/>
      <point x="15" y="0"/>
      <point x="21" y="0" type="curve" smooth="yes"/>
      <point x="249" y="0" type="line" smooth="yes"/>
      <point x="254" y="0"/>
      <point x="256" y="2"/>
      <point x="256" y="5" type="curve" smooth="yes"/>
      <point x="256" y="8"/>
      <point x="254" y="10"/>
      <point x="249" y="11" type="curve" smooth="yes"/>
      <point x="202" y="22" type="line" smooth="yes"/>
      <point x="156" y="33"/>
      <point x="138" y="65"/>
      <point x="158" y="95" type="curve" smooth="yes"/>
      <point x="379" y="422" type="line"/>
    </contour>
    <contour>
      <point x="190" y="780" type="line" smooth="yes"/>
      <point x="173" y="805"/>
      <point x="181" y="828"/>
      <point x="199" y="830" type="curve" smooth="yes"/>
      <point x="275" y="840" type="line" smooth="yes"/>
      <point x="280" y="841"/>
      <point x="282" y="843"/>
      <point x="282" y="846" type="curve" smooth="yes"/>
      <point x="282" y="849"/>
      <point x="280" y="850"/>
      <point x="276" y="850" type="curve" smooth="yes"/>
      <point x="31" y="850" type="line" smooth="yes"/>
      <point x="27" y="850"/>
      <point x="25" y="848"/>
      <point x="25" y="846" type="curve" smooth="yes"/>
      <point x="25" y="845"/>
      <point x="25" y="843"/>
      <point x="30" y="842" type="curve" smooth="yes"/>
      <point x="66" y="838"/>
      <point x="98" y="826"/>
      <point x="126" y="784" type="curve" smooth="yes"/>
      <point x="372" y="420" type="line"/>
      <point x="375" y="417" type="line"/>
      <point x="623" y="55" type="line" smooth="yes"/>
      <point x="633" y="40"/>
      <point x="629" y="28"/>
      <point x="608" y="24" type="curve" smooth="yes"/>
      <point x="528" y="7" type="line" smooth="yes"/>
      <point x="525" y="6"/>
      <point x="523" y="5"/>
      <point x="523" y="3" type="curve" smooth="yes"/>
      <point x="523" y="1"/>
      <point x="525" y="0"/>
      <point x="527" y="0" type="curve" smooth="yes"/>
      <point x="773" y="0" type="line" smooth="yes"/>
      <point x="777" y="0"/>
      <point x="779" y="2"/>
      <point x="779" y="4" type="curve" smooth="yes"/>
      <point x="779" y="6"/>
      <point x="777" y="8"/>
      <point x="773" y="8" type="curve" smooth="yes"/>
      <point x="738" y="11"/>
      <point x="704" y="28"/>
      <point x="676" y="68" type="curve" smooth="yes"/>
      <point x="409" y="457" type="line"/>
      <point x="405" y="461" type="line"/>
    </contour>
    <contour>
      <point x="394" y="434" type="line"/>
      <point x="624" y="765" type="line" smooth="yes"/>
      <point x="654" y="808"/>
      <point x="674" y="831"/>
      <point x="727" y="838" type="curve" smooth="yes"/>
      <point x="737" y="839"/>
      <point x="739" y="842"/>
      <point x="739" y="845" type="curve" smooth="yes"/>
      <point x="739" y="848"/>
      <point x="737" y="850"/>
      <point x="734" y="850" type="curve" smooth="yes"/>
      <point x="494" y="850" type="line" smooth="yes"/>
      <point x="492" y="850"/>
      <point x="490" y="849"/>
      <point x="490" y="846" type="curve" smooth="yes"/>
      <point x="490" y="843"/>
      <point x="493" y="842"/>
      <point x="496" y="841" type="curve" smooth="yes"/>
      <point x="570" y="826" type="line" smooth="yes"/>
      <point x="620" y="816"/>
      <point x="629" y="788"/>
      <point x="602" y="750" type="curve" smooth="yes"/>
      <point x="389" y="442" type="line"/>
    </contour>
  </outline>
</glyph>
<glyph name="cent" format="2">
  <advance width="737"/>
  <unicode hex="00A2"/>
  <outline>
    <contour>
      <point x="408" y="434" type="curve" smooth="yes"/>
      <point x="408" y="471"/>
      <point x="421" y="999"/>
      <point x="421" y="1013" type="curve" smooth="yes"/>
      <point x="421" y="1026"/>
      <point x="413" y="1032"/>
      <point x="405" y="1032" type="curve" smooth="yes"/>
      <point x="395" y="1032"/>
      <point x="388" y="1026"/>
      <point x="388" y="1013" type="curve" smooth="yes"/>
      <point x="388" y="999"/>
      <point x="400" y="471"/>
      <point x="400" y="434" type="curve" smooth="yes"/>
      <point x="401" y="397"/>
      <point x="388" y="-112"/>
      <point x="388" y="-124" type="curve" smooth="yes"/>
      <point x="388" y="-137"/>
      <point x="396" y="-143"/>
      <point x="404" y="-143" type="curve" smooth="yes"/>
      <point x="413" y="-143"/>
      <point x="421" y="-136"/>
      <point x="421" y="-125" type="curve" smooth="yes"/>
      <point x="421" y="-112"/>
      <point x="408" y="397"/>
    </contour>
    <contour>
      <point x="705" y="679" type="curve" smooth="yes"/>
      <point x="705" y="785"/>
      <point x="599" y="872"/>
      <point x="436" y="872" type="curve" smooth="yes"/>
      <point x="207" y="872"/>
      <point x="55" y="664"/>
      <point x="55" y="418" type="curve" smooth="yes"/>
      <point x="55" y="138"/>
      <point x="212" y="-17"/>
      <point x="408" y="-17" type="curve" smooth="yes"/>
      <point x="553" y="-17"/>
      <point x="668" y="72"/>
      <point x="714" y="245" type="curve" smooth="yes"/>
      <point x="715" y="247"/>
      <point x="714" y="250"/>
      <point x="712" y="250" type="curve" smooth="yes"/>
      <point x="710" y="250"/>
      <point x="709" y="249"/>
      <point x="708" y="246" type="curve" smooth="yes"/>
      <point x="663" y="98"/>
      <point x="561" y="25"/>
      <point x="435" y="25" type="curve" smooth="yes"/>
      <point x="253" y="25"/>
      <point x="107" y="174"/>
      <point x="107" y="448" type="curve" smooth="yes"/>
      <point x="107" y="690"/>
      <point x="233" y="865"/>
      <point x="425" y="865" type="curve" smooth="yes"/>
      <point x="550" y="865"/>
      <point x="625" y="801"/>
      <point x="625" y="712" type="curve" smooth="yes"/>
      <point x="625" y="680" type="line" smooth="yes"/>
      <point x="625" y="650"/>
      <point x="643" y="632"/>
      <point x="666" y="632" type="curve" smooth="yes"/>
      <point x="687" y="632"/>
      <point x="705" y="652"/>
    </contour>
  </outline>
</glyph>
<glyph name="sterling" format="2">
  <advance width="971"/>
  <unicode hex="00A3"/>
  <outline>
    <contour>
      <point x="201" y="223" type="line"/>
      <point x="337" y="278"/>
      <point x="424" y="377"/>
      <point x="425" y="476" type="curve" smooth="yes"/>
      <point x="426.9151797389578" y="668.475563765265"/>
      <point x="217.0" y="874.9224283305227"/>
      <point x="217" y="1063" type="curve" smooth="yes"/>
      <point x="217.0" y="1278.9793510324484"/>
      <point x="334.0" y="1410.0"/>
      <point x="555" y="1410" type="curve" smooth="yes"/>
      <point x="735.0" y="1410.0"/>
      <point x="823" y="1302.1525423728813"/>
      <point x="823" y="1107" type="curve" smooth="yes"/>
      <point x="823" y="1076" type="line" smooth="yes"/>
      <point x="823" y="1042"/>
      <point x="841" y="1023"/>
      <point x="864" y="1023" type="curve" smooth="yes"/>
      <point x="893" y="1023"/>
      <point x="910" y="1051"/>
      <point x="910" y="1102" type="curve" smooth="yes"/>
      <point x="910.0" y="1277.4129032258065"/>
      <point x="797.0" y="1420.0"/>
      <point x="555" y="1420" type="curve" smooth="yes"/>
      <point x="324.0" y="1420.0"/>
      <point x="168.0" y="1279.9126760563381"/>
      <point x="168" y="1057" type="curve" smooth="yes"/>
      <point x="168.0" y="846.1371237458194"/>
      <point x="383.0841331128905" y="647.9652877189543"/>
      <point x="385" y="465" type="curve" smooth="yes"/>
      <point x="386" y="368"/>
      <point x="316" y="277"/>
      <point x="198" y="226" type="curve"/>
    </contour>
    <contour>
      <point x="56" y="27" type="curve" smooth="yes"/>
      <point x="56" y="-5"/>
      <point x="72" y="-20"/>
      <point x="90" y="-20" type="curve" smooth="yes"/>
      <point x="113" y="-20"/>
      <point x="129" y="-5"/>
      <point x="129" y="26" type="curve" smooth="yes"/>
      <point x="131" y="175"/>
      <point x="177" y="225"/>
      <point x="259" y="225" type="curve" smooth="yes"/>
      <point x="315" y="225"/>
      <point x="360" y="199"/>
      <point x="462" y="120" type="curve" smooth="yes"/>
      <point x="588" y="22"/>
      <point x="656" y="-19"/>
      <point x="737" y="-19" type="curve" smooth="yes"/>
      <point x="835" y="-19"/>
      <point x="904" y="43"/>
      <point x="956" y="221" type="curve" smooth="yes"/>
      <point x="957" y="224"/>
      <point x="956" y="226"/>
      <point x="954" y="226" type="curve" smooth="yes"/>
      <point x="952" y="226"/>
      <point x="950" y="225"/>
      <point x="949" y="223" type="curve" smooth="yes"/>
      <point x="899" y="78"/>
      <point x="843" y="43"/>
      <point x="739" y="43" type="curve" smooth="yes"/>
      <point x="591" y="43"/>
      <point x="416" y="235"/>
      <point x="259" y="235" type="curve" smooth="yes"/>
      <point x="145" y="235"/>
      <point x="56" y="146"/>
    </contour>
    <contour>
      <point x="92" y="654" type="curve" smooth="yes"/>
      <point x="92" y="651"/>
      <point x="94" y="649"/>
      <point x="97" y="649" type="curve" smooth="yes"/>
      <point x="355" y="649" type="line"/>
      <point x="351" y="659" type="line"/>
      <point x="97" y="659" type="line" smooth="yes"/>
      <point x="94" y="659"/>
      <point x="92" y="657"/>
    </contour>
    <contour>
      <point x="361" y="649" type="line"/>
      <point x="803" y="649" type="line" smooth="yes"/>
      <point x="806" y="649"/>
      <point x="808" y="651"/>
      <point x="808" y="654" type="curve" smooth="yes"/>
      <point x="808" y="657"/>
      <point x="806" y="659"/>
      <point x="803" y="659" type="curve" smooth="yes"/>
      <point x="357" y="659" type="line"/>
    </contour>
  </outline>
</glyph>
<glyph name="currency" format="2">
  <advance width="1042"/>
  <unicode hex="00A4"/>
  <outline>
    <contour>
      <point x="112" y="323" type="curve" smooth="yes"/>
      <point x="315" y="529" type="line"/>
      <point x="322" y="522" type="line"/>
      <point x="119" y="316" type="line" smooth="yes"/>
      <point x="116" y="313"/>
      <point x="113" y="313"/>
      <point x="111" y="315" type="curve" smooth="yes"/>
      <point x="109" y="317"/>
      <point x="109" y="320"/>
    </contour>
    <contour>
      <point x="111" y="1153" type="curve" smooth="yes"/>
      <point x="113" y="1155"/>
      <point x="116" y="1155"/>
      <point x="119" y="1152" type="curve" smooth="yes"/>
      <point x="320" y="947" type="line"/>
      <point x="313" y="940" type="line"/>
      <point x="112" y="1145" type="line" smooth="yes"/>
      <point x="109" y="1148"/>
      <point x="109" y="1151"/>
    </contour>
    <contour>
      <point x="931" y="1153" type="curve" smooth="yes"/>
      <point x="933" y="1151"/>
      <point x="933" y="1148"/>
      <point x="930" y="1145" type="curve" smooth="yes"/>
      <point x="729" y="940" type="line"/>
      <point x="722" y="947" type="line"/>
      <point x="923" y="1152" type="line" smooth="yes"/>
      <point x="926" y="1155"/>
      <point x="929" y="1155"/>
    </contour>
    <contour>
      <point x="931" y="315" type="curve" smooth="yes"/>
      <point x="929" y="313"/>
      <point x="926" y="313"/>
      <point x="923" y="316" type="curve" smooth="yes"/>
      <point x="721" y="522" type="line"/>
      <point x="728" y="529" type="line"/>
      <point x="930" y="323" type="line" smooth="yes"/>
      <point x="933" y="320"/>
      <point x="933" y="317"/>
    </contour>
    <contour>
      <point x="520" y="445" type="curve" smooth="yes"/>
      <point x="355" y="445.0"/>
      <point x="236.0" y="566.0"/>
      <point x="236" y="737" type="curve" smooth="yes"/>
      <point x="236.0" y="907.0"/>
      <point x="356" y="1024.0"/>
      <point x="520" y="1024" type="curve" smooth="yes"/>
      <point x="686" y="1024.0"/>
      <point x="806.0" y="908.0"/>
      <point x="806" y="737" type="curve" smooth="yes"/>
      <point x="806.0" y="565.0"/>
      <point x="687" y="445.0"/>
    </contour>
    <contour>
      <point x="520" y="455" type="curve" smooth="yes"/>
      <point x="684" y="455.0"/>
      <point x="796.0" y="574.0"/>
      <point x="796" y="737" type="curve" smooth="yes"/>
      <point x="796.0" y="898.0"/>
      <point x="682" y="1014.0"/>
      <point x="520" y="1014" type="curve" smooth="yes"/>
      <point x="360" y="1014.0"/>
      <point x="246.0" y="899.0"/>
      <point x="246" y="737" type="curve" smooth="yes"/>
      <point x="246.0" y="573.0"/>
      <point x="360" y="455.0"/>
    </contour>
  </outline>
</glyph>
<glyph name="degree" format="2">
  <advance width="613"/>
  <unicode hex="00B0"/>
  <outline>
    <contour>
      <point x="306" y="1420" type="curve" smooth="yes"/>
      <point x="171" y="1420"/>
      <point x="80" y="1311"/>
      <point x="80" y="1172" type="curve" smooth="yes"/>
      <point x="80" y="1030"/>
      <point x="176" y="928"/>
      <point x="306" y="928" type="curve" smooth="yes"/>
      <point x="435" y="928"/>
      <point x="533" y="1026"/>
      <point x="533" y="1170" type="curve" smooth="yes"/>
      <point x="533" y="1317"/>
      <point x="438" y="1420"/>
    </contour>
    <contour>
      <point x="306" y="1407" type="curve" smooth="yes"/>
      <point x="431.244" y="1407"/>
      <point x="520" y="1307"/>
      <point x="520" y="1169" type="curve" smooth="yes"/>
      <point x="520" y="1034"/>
      <point x="426.313" y="941"/>
      <point x="306" y="941" type="curve" smooth="yes"/>
      <point x="184" y="941"/>
      <point x="93" y="1034.782"/>
      <point x="93" y="1172" type="curve" smooth="yes"/>
      <point x="93" y="1304"/>
      <point x="177.806" y="1407"/>
    </contour>
  </outline>
</glyph>
<glyph name="ordmasculine" format="2">
  <advance width="914"/>
  <unicode hex="00BA"/>
  <outline>
    <contour>
      <point x="447" y="1417" type="curve" smooth="yes"/>
      <point x="232" y="1417"/>
      <point x="95" y="1259.407"/>
      <point x="95" y="1030" type="curve" smooth="yes"/>
      <point x="95" y="808.403"/>
      <point x="232" y="659"/>
      <point x="421" y="659" type="curve" smooth="yes"/>
      <point x="638" y="659"/>
      <point x="779" y="814.403"/>
      <point x="779" y="1045" type="curve" smooth="yes"/>
      <point x="779" y="1273.386"/>
      <point x="641" y="1417"/>
    </contour>
    <contour>
      <point x="466" y="670" type="curve" smooth="yes"/>
      <point x="300.002" y="659"/>
      <point x="169.05" y="788.355"/>
      <point x="152" y="1007" type="curve" smooth="yes"/>
      <point x="134.045" y="1232.439"/>
      <point x="229.003" y="1392"/>
      <point x="408" y="1406" type="curve" smooth="yes"/>
      <point x="573.997" y="1419"/>
      <point x="705.05" y="1290.344"/>
      <point x="722" y="1066" type="curve" smooth="yes"/>
      <point x="740.045" y="833.416"/>
      <point x="632.998" y="681"/>
    </contour>
  </outline>
</glyph>
<glyph name="Eth" format="2">
  <advance width="1316"/>
  <unicode hex="00D0"/>
  <guideline x="166" y="700" angle="0" identifier="9wALwiKkGu"/>
  <outline>
    <contour>
      <point x="81" y="700" type="curve" smooth="yes"/>
      <point x="81" y="697"/>
      <point x="83" y="695"/>
      <point x="86" y="695" type="curve" smooth="yes"/>
      <point x="741" y="695" type="line" smooth="yes"/>
      <point x="744" y="695"/>
      <point x="746" y="697"/>
      <point x="746" y="700" type="curve" smooth="yes"/>
      <point x="746" y="703"/>
      <point x="744" y="705"/>
      <point x="741" y="705" type="curve" smooth="yes"/>
      <point x="86" y="705" type="line" smooth="yes"/>
      <point x="83" y="705"/>
      <point x="81" y="703"/>
    </contour>
    <component base="D"/>
  </outline>
</glyph>
<glyph name="Oslash" format="2">
  <advance width="1432"/>
  <unicode hex="00D8"/>
  <outline>
    <contour>
      <point x="72" y="-9" type="curve" smooth="yes"/>
      <point x="75" y="-12"/>
      <point x="78" y="-10"/>
      <point x="79" y="-9" type="curve" smooth="yes"/>
      <point x="1358" y="1414" type="line" smooth="yes"/>
      <point x="1360" y="1416"/>
      <point x="1362" y="1419"/>
      <point x="1359" y="1422" type="curve" smooth="yes"/>
      <point x="1356" y="1425"/>
      <point x="1352" y="1423"/>
      <point x="1351" y="1421" type="curve" smooth="yes"/>
      <point x="73" y="-1" type="line" smooth="yes"/>
      <point x="70" y="-4"/>
      <point x="70" y="-7"/>
    </contour>
    <component base="O"/>
  </outline>
</glyph>
<glyph name="ae" format="2">
  <advance width="1276"/>
  <unicode hex="00E6"/>
  <anchor x="712" y="1003" name="center"/>
  <outline>
    <contour>
      <point x="608" y="344" type="curve"/>
      <point x="612" y="350" type="line"/>
      <point x="544" y="376"/>
      <point x="470" y="402"/>
      <point x="354" y="402" type="curve" smooth="yes"/>
      <point x="176" y="402"/>
      <point x="72" y="306"/>
      <point x="72" y="186" type="curve" smooth="yes"/>
      <point x="72.0" y="66.0"/>
      <point x="168" y="-16.0"/>
      <point x="323" y="-16" type="curve" smooth="yes"/>
      <point x="443" y="-16.0"/>
      <point x="558" y="37"/>
      <point x="647" y="169" type="curve"/>
      <point x="641" y="173" type="line"/>
      <point x="553" y="43"/>
      <point x="448" y="4.0"/>
      <point x="347" y="4" type="curve" smooth="yes"/>
      <point x="219" y="4.0"/>
      <point x="134.0" y="84.0"/>
      <point x="134" y="198" type="curve" smooth="yes"/>
      <point x="134" y="310"/>
      <point x="216" y="394"/>
      <point x="378" y="394" type="curve" smooth="yes"/>
      <point x="468" y="394"/>
      <point x="542" y="370"/>
    </contour>
    <contour>
      <point x="1232" y="548" type="curve" smooth="yes"/>
      <point x="1232" y="738"/>
      <point x="1116" y="872"/>
      <point x="942" y="872" type="curve" smooth="yes"/>
      <point x="798" y="872"/>
      <point x="686" y="781"/>
      <point x="621" y="629" type="curve"/>
      <point x="636" y="634" type="line"/>
      <point x="636" y="790"/>
      <point x="552" y="872"/>
      <point x="392" y="872" type="curve" smooth="yes"/>
      <point x="215" y="872"/>
      <point x="114" y="783"/>
      <point x="114" y="688" type="curve" smooth="yes"/>
      <point x="114" y="656"/>
      <point x="130" y="638"/>
      <point x="150" y="638" type="curve" smooth="yes"/>
      <point x="170" y="638"/>
      <point x="188" y="650"/>
      <point x="188" y="682" type="curve" smooth="yes"/>
      <point x="188" y="726" type="line" smooth="yes"/>
      <point x="188" y="785"/>
      <point x="247" y="864"/>
      <point x="388" y="864" type="curve" smooth="yes"/>
      <point x="520" y="864"/>
      <point x="580" y="777"/>
      <point x="580" y="610" type="curve"/>
      <point x="580" y="400" type="line" smooth="yes"/>
      <point x="580" y="137"/>
      <point x="713" y="-20"/>
      <point x="923" y="-20" type="curve" smooth="yes"/>
      <point x="1075" y="-20"/>
      <point x="1195" y="89"/>
      <point x="1224" y="239" type="curve" smooth="yes"/>
      <point x="1225" y="245"/>
      <point x="1222" y="247"/>
      <point x="1220" y="247" type="curve" smooth="yes"/>
      <point x="1218" y="247"/>
      <point x="1217" y="245"/>
      <point x="1216" y="241" type="curve" smooth="yes"/>
      <point x="1187" y="101"/>
      <point x="1077" y="16"/>
      <point x="955" y="16" type="curve" smooth="yes"/>
      <point x="765.0" y="16.0"/>
      <point x="630.0" y="164.51376146788994"/>
      <point x="630" y="442" type="curve" smooth="yes"/>
      <point x="630.0" y="676.5582524271845"/>
      <point x="731.0" y="864.0"/>
      <point x="936" y="864" type="curve" smooth="yes"/>
      <point x="1082" y="864"/>
      <point x="1174" y="748"/>
      <point x="1174" y="558" type="curve" smooth="yes"/>
      <point x="1174" y="550"/>
      <point x="1168" y="544"/>
      <point x="1160" y="544" type="curve" smooth="yes"/>
      <point x="608" y="544" type="line"/>
      <point x="608" y="536" type="line"/>
      <point x="1218" y="536" type="line" smooth="yes"/>
      <point x="1226" y="536"/>
      <point x="1232" y="540"/>
    </contour>
  </outline>
</glyph>
<glyph name="Hbar" format="2">
  <advance width="1360"/>
  <unicode hex="0126"/>
  <outline>
    <contour>
      <point x="78" y="1006" type="curve" smooth="yes"/>
      <point x="78" y="1003"/>
      <point x="80" y="1001"/>
      <point x="83" y="1001" type="curve" smooth="yes"/>
      <point x="1282" y="1001" type="line" smooth="yes"/>
      <point x="1285" y="1001"/>
      <point x="1287" y="1003"/>
      <point x="1287" y="1006" type="curve" smooth="yes"/>
      <point x="1287" y="1009"/>
      <point x="1285" y="1011"/>
      <point x="1282" y="1011" type="curve" smooth="yes"/>
      <point x="83" y="1011" type="line" smooth="yes"/>
      <point x="80" y="1011"/>
      <point x="78" y="1009"/>
    </contour>
    <component base="H"/>
  </outline>
</glyph>
<glyph name="Iogonek" format="2">
  <advance width="518"/>
  <unicode hex="012E"/>
  <outline>
    <contour>
      <point x="335" y="7" type="line"/>
      <point x="183.9257220256" y="-48.0270548913"/>
      <point x="114" y="-142.3852459016"/>
      <point x="114" y="-236" type="curve" smooth="yes"/>
      <point x="114" y="-327.619047619"/>
      <point x="176" y="-384"/>
      <point x="277" y="-384" type="curve" smooth="yes"/>
      <point x="347" y="-384"/>
      <point x="395" y="-342"/>
      <point x="412" y="-305" type="curve" smooth="yes"/>
      <point x="414" y="-301"/>
      <point x="414" y="-297"/>
      <point x="411" y="-296" type="curve" smooth="yes"/>
      <point x="408" y="-295"/>
      <point x="406" y="-297"/>
      <point x="404" y="-301" type="curve" smooth="yes"/>
      <point x="385" y="-339"/>
      <point x="339" y="-369"/>
      <point x="291" y="-369" type="curve" smooth="yes"/>
      <point x="212" y="-369"/>
      <point x="171" y="-317.625"/>
      <point x="171" y="-232" type="curve" smooth="yes"/>
      <point x="171" y="-136.4120171674"/>
      <point x="218.9143108332" y="-53.0375332714"/>
      <point x="340" y="0" type="curve"/>
    </contour>
    <component base="I"/>
  </outline>
</glyph>
<glyph name="iogonek" format="2">
  <advance width="369"/>
  <unicode hex="012F"/>
  <outline>
    <contour>
      <point x="272" y="7" type="line"/>
      <point x="120.9257220256" y="-48.0270548913"/>
      <point x="51" y="-142.3852459016"/>
      <point x="51" y="-236" type="curve" smooth="yes"/>
      <point x="51" y="-327.619047619"/>
      <point x="113" y="-384"/>
      <point x="214" y="-384" type="curve" smooth="yes"/>
      <point x="284" y="-384"/>
      <point x="332" y="-342"/>
      <point x="349" y="-305" type="curve" smooth="yes"/>
      <point x="351" y="-301"/>
      <point x="351" y="-297"/>
      <point x="348" y="-296" type="curve" smooth="yes"/>
      <point x="345" y="-295"/>
      <point x="343" y="-297"/>
      <point x="341" y="-301" type="curve" smooth="yes"/>
      <point x="322" y="-339"/>
      <point x="276" y="-369"/>
      <point x="228" y="-369" type="curve" smooth="yes"/>
      <point x="149" y="-369"/>
      <point x="108" y="-317.625"/>
      <point x="108" y="-232" type="curve" smooth="yes"/>
      <point x="108" y="-136.4120171674"/>
      <point x="155.9143108332" y="-53.0375332714"/>
      <point x="277" y="0" type="curve"/>
    </contour>
    <component base="i"/>
  </outline>
</glyph>
<glyph name="Lslash" format="2">
  <advance width="1026"/>
  <unicode hex="0141"/>
  <anchor x="545" y="1478" name="center"/>
  <anchor x="861" y="1476" name="right"/>
  <outline>
    <contour>
      <point x="50" y="502" type="curve" smooth="yes"/>
      <point x="52" y="499"/>
      <point x="55" y="499"/>
      <point x="57" y="501" type="curve" smooth="yes"/>
      <point x="667" y="944" type="line" smooth="yes"/>
      <point x="669" y="945"/>
      <point x="671" y="948"/>
      <point x="669" y="951" type="curve" smooth="yes"/>
      <point x="667" y="954"/>
      <point x="664" y="953"/>
      <point x="661" y="951" type="curve" smooth="yes"/>
      <point x="51" y="509" type="line" smooth="yes"/>
      <point x="49" y="508"/>
      <point x="48" y="505"/>
    </contour>
    <component base="L"/>
  </outline>
</glyph>
<glyph name="eng" format="2">
  <advance width="898"/>
  <unicode hex="014B"/>
  <outline>
    <contour>
      <point x="214" y="852" type="line" smooth="yes"/>
      <point x="214" y="856"/>
      <point x="212" y="860"/>
      <point x="208" y="860" type="curve" smooth="yes"/>
      <point x="207" y="860"/>
      <point x="204" y="860"/>
      <point x="198" y="858" type="curve" smooth="yes"/>
      <point x="50" y="816" type="line" smooth="yes"/>
      <point x="46" y="814"/>
      <point x="44" y="814"/>
      <point x="44" y="810" type="curve" smooth="yes"/>
      <point x="44" y="808"/>
      <point x="46" y="806"/>
      <point x="48" y="806" type="curve" smooth="yes"/>
      <point x="152" y="806" type="line" smooth="yes"/>
      <point x="158" y="806"/>
      <point x="160" y="802"/>
      <point x="160" y="798" type="curve" smooth="yes"/>
      <point x="160" y="40" type="line" smooth="yes"/>
      <point x="160" y="30"/>
      <point x="152" y="22"/>
      <point x="136" y="20" type="curve" smooth="yes"/>
      <point x="50" y="8" type="line" smooth="yes"/>
      <point x="46" y="7"/>
      <point x="44" y="5"/>
      <point x="44" y="4" type="curve" smooth="yes"/>
      <point x="44" y="2"/>
      <point x="46" y="0"/>
      <point x="48" y="0" type="curve" smooth="yes"/>
      <point x="320" y="0" type="line" smooth="yes"/>
      <point x="324" y="0"/>
      <point x="326" y="2"/>
      <point x="326" y="4" type="curve" smooth="yes"/>
      <point x="326" y="8"/>
      <point x="324" y="10"/>
      <point x="318" y="10" type="curve" smooth="yes"/>
      <point x="238" y="20" type="line" smooth="yes"/>
      <point x="222" y="22"/>
      <point x="214" y="30"/>
      <point x="214" y="42" type="curve" smooth="yes"/>
    </contour>
    <contour>
      <point x="714" y="28" type="line" smooth="yes"/>
      <point x="714.0" y="-130.0"/>
      <point x="804" y="-207"/>
      <point x="804" y="-320" type="curve" smooth="yes"/>
      <point x="804" y="-390"/>
      <point x="771" y="-435"/>
      <point x="706" y="-435" type="curve" smooth="yes"/>
      <point x="661" y="-435"/>
      <point x="632" y="-404"/>
      <point x="632" y="-346" type="curve" smooth="yes"/>
      <point x="632" y="-328" type="line" smooth="yes"/>
      <point x="632" y="-302"/>
      <point x="617" y="-284"/>
      <point x="594" y="-284" type="curve" smooth="yes"/>
      <point x="569" y="-284"/>
      <point x="554" y="-305"/>
      <point x="554" y="-338" type="curve" smooth="yes"/>
      <point x="554" y="-397"/>
      <point x="611" y="-444"/>
      <point x="689" y="-444" type="curve" smooth="yes"/>
      <point x="779" y="-444"/>
      <point x="834" y="-378"/>
      <point x="834" y="-301" type="curve" smooth="yes"/>
      <point x="834" y="-184"/>
      <point x="768" y="-97"/>
      <point x="768" y="36" type="curve" smooth="yes"/>
      <point x="768" y="600" type="line" smooth="yes"/>
      <point x="768" y="780"/>
      <point x="660" y="870"/>
      <point x="518" y="870" type="curve" smooth="yes"/>
      <point x="430" y="870"/>
      <point x="354" y="844"/>
      <point x="232" y="730" type="curve" smooth="yes"/>
      <point x="202" y="702" type="line"/>
      <point x="206" y="698" type="line"/>
      <point x="236" y="726" type="line" smooth="yes"/>
      <point x="328" y="812"/>
      <point x="410" y="844"/>
      <point x="490" y="844" type="curve" smooth="yes"/>
      <point x="620" y="844"/>
      <point x="714" y="768"/>
      <point x="714" y="596" type="curve" smooth="yes"/>
    </contour>
  </outline>
</glyph>
<glyph name="oe" format="2">
  <advance width="1465"/>
  <unicode hex="0153"/>
  <outline>
    <contour>
      <point x="485" y="-8" type="curve" smooth="yes"/>
      <point x="287.0" y="-22.0"/>
      <point x="131.00320230768708" y="132.9578896539149"/>
      <point x="111" y="396" type="curve" smooth="yes"/>
      <point x="89.99997120969489" y="659.0003605642972"/>
      <point x="196.09723914288566" y="847.144637182268"/>
      <point x="397" y="861" type="curve" smooth="yes"/>
      <point x="600.6706784096228" y="875.1157895927462"/>
      <point x="740.9999859658013" y="733.0001950753629"/>
      <point x="761" y="455" type="curve" smooth="yes"/>
      <point x="780.9963049116017" y="183.05025320221694"/>
      <point x="665.0" y="6.0"/>
    </contour>
    <contour>
      <point x="437" y="870" type="curve" smooth="yes"/>
      <point x="204" y="870"/>
      <point x="55" y="687"/>
      <point x="55" y="422" type="curve" smooth="yes"/>
      <point x="55" y="158"/>
      <point x="217" y="-20"/>
      <point x="441" y="-20" type="curve" smooth="yes"/>
      <point x="624" y="-20"/>
      <point x="767" y="107"/>
      <point x="808" y="305" type="curve"/>
      <point x="802" y="562" type="line"/>
      <point x="755" y="748"/>
      <point x="613" y="870"/>
    </contour>
    <contour>
      <point x="1421" y="548" type="curve" smooth="yes"/>
      <point x="1421" y="738"/>
      <point x="1305" y="872"/>
      <point x="1131" y="872" type="curve" smooth="yes"/>
      <point x="915" y="872"/>
      <point x="769" y="660"/>
      <point x="769" y="400" type="curve" smooth="yes"/>
      <point x="769" y="137"/>
      <point x="902" y="-20"/>
      <point x="1112" y="-20" type="curve" smooth="yes"/>
      <point x="1264" y="-20"/>
      <point x="1384" y="89"/>
      <point x="1413" y="239" type="curve" smooth="yes"/>
      <point x="1414" y="245"/>
      <point x="1411" y="247"/>
      <point x="1409" y="247" type="curve" smooth="yes"/>
      <point x="1407" y="247"/>
      <point x="1406" y="245"/>
      <point x="1405" y="241" type="curve" smooth="yes"/>
      <point x="1376" y="101"/>
      <point x="1266" y="16"/>
      <point x="1144" y="16" type="curve" smooth="yes"/>
      <point x="954" y="16"/>
      <point x="819" y="178"/>
      <point x="819" y="452" type="curve" smooth="yes"/>
      <point x="819" y="690"/>
      <point x="925" y="864"/>
      <point x="1125" y="864" type="curve" smooth="yes"/>
      <point x="1271" y="864"/>
      <point x="1363" y="748"/>
      <point x="1363" y="558" type="curve" smooth="yes"/>
      <point x="1363" y="550"/>
      <point x="1357" y="544"/>
      <point x="1349" y="544" type="curve" smooth="yes"/>
      <point x="797" y="544" type="line"/>
      <point x="797" y="536" type="line"/>
      <point x="1407" y="536" type="line" smooth="yes"/>
      <point x="1415" y="536"/>
      <point x="1421" y="540"/>
    </contour>
  </outline>
</glyph>
<glyph name="Scedilla" format="2">
  <advance width="1052"/>
  <unicode hex="015E"/>
  <outline>
    <contour>
      <point x="544" y="-11" type="line"/>
      <point x="491" y="-124" type="line" smooth="yes"/>
      <point x="487" y="-132"/>
      <point x="489" y="-137"/>
      <point x="497" y="-137" type="curve" smooth="yes"/>
      <point x="531" y="-137" type="line" smooth="yes"/>
      <point x="597" y="-137"/>
      <point x="629" y="-189"/>
      <point x="629" y="-257" type="curve" smooth="yes"/>
      <point x="629" y="-333"/>
      <point x="597" y="-372"/>
      <point x="541" y="-372" type="curve" smooth="yes"/>
      <point x="485" y="-372"/>
      <point x="432" y="-347"/>
      <point x="420" y="-287" type="curve" smooth="yes"/>
      <point x="419" y="-281"/>
      <point x="417" y="-278"/>
      <point x="413" y="-279" type="curve" smooth="yes"/>
      <point x="409" y="-280"/>
      <point x="408" y="-283"/>
      <point x="409" y="-289" type="curve" smooth="yes"/>
      <point x="420" y="-344"/>
      <point x="473" y="-384"/>
      <point x="546" y="-384" type="curve" smooth="yes"/>
      <point x="632" y="-384"/>
      <point x="693" y="-329"/>
      <point x="693" y="-251" type="curve" smooth="yes"/>
      <point x="693" y="-183"/>
      <point x="629" y="-125"/>
      <point x="531" y="-125" type="curve" smooth="yes"/>
      <point x="518" y="-125"/>
      <point x="513" y="-125"/>
      <point x="499" y="-125" type="curve"/>
      <point x="502" y="-131" type="line"/>
      <point x="558" y="-11" type="line"/>
    </contour>
    <component base="S"/>
  </outline>
</glyph>
<glyph name="scedilla" format="2">
  <advance width="690"/>
  <unicode hex="015F"/>
  <outline>
    <contour>
      <point x="344" y="-11" type="line"/>
      <point x="291" y="-124" type="line" smooth="yes"/>
      <point x="287" y="-132"/>
      <point x="289" y="-137"/>
      <point x="297" y="-137" type="curve" smooth="yes"/>
      <point x="331" y="-137" type="line" smooth="yes"/>
      <point x="397" y="-137"/>
      <point x="429" y="-189"/>
      <point x="429" y="-257" type="curve" smooth="yes"/>
      <point x="429" y="-333"/>
      <point x="397" y="-372"/>
      <point x="341" y="-372" type="curve" smooth="yes"/>
      <point x="285" y="-372"/>
      <point x="232" y="-347"/>
      <point x="220" y="-287" type="curve" smooth="yes"/>
      <point x="219" y="-281"/>
      <point x="217" y="-278"/>
      <point x="213" y="-279" type="curve" smooth="yes"/>
      <point x="209" y="-280"/>
      <point x="208" y="-283"/>
      <point x="209" y="-289" type="curve" smooth="yes"/>
      <point x="220" y="-344"/>
      <point x="273" y="-384"/>
      <point x="346" y="-384" type="curve" smooth="yes"/>
      <point x="432" y="-384"/>
      <point x="493" y="-329"/>
      <point x="493" y="-251" type="curve" smooth="yes"/>
      <point x="493" y="-183"/>
      <point x="429" y="-125"/>
      <point x="331" y="-125" type="curve" smooth="yes"/>
      <point x="318" y="-125"/>
      <point x="313" y="-125"/>
      <point x="299" y="-125" type="curve"/>
      <point x="302" y="-131" type="line"/>
      <point x="358" y="-11" type="line"/>
    </contour>
    <component base="s"/>
  </outline>
</glyph>
<glyph name="Tbar" format="2">
  <advance width="1088"/>
  <unicode hex="0166"/>
  <outline>
    <contour>
      <point x="204" y="704" type="curve" smooth="yes"/>
      <point x="204" y="701"/>
      <point x="206" y="699"/>
      <point x="209" y="699" type="curve" smooth="yes"/>
      <point x="878" y="699" type="line" smooth="yes"/>
      <point x="881" y="699"/>
      <point x="883" y="701"/>
      <point x="883" y="704" type="curve" smooth="yes"/>
      <point x="883" y="707"/>
      <point x="881" y="709"/>
      <point x="878" y="709" type="curve" smooth="yes"/>
      <point x="209" y="709" type="line" smooth="yes"/>
      <point x="206" y="709"/>
      <point x="204" y="707"/>
    </contour>
    <component base="T"/>
  </outline>
</glyph>
<glyph name="tbar" format="2">
  <advance width="474"/>
  <unicode hex="0167"/>
  <outline>
    <contour>
      <point x="31" y="500" type="curve" smooth="yes"/>
      <point x="31.0" y="497.0"/>
      <point x="33.0" y="495.0"/>
      <point x="36" y="495" type="curve" smooth="yes"/>
      <point x="442" y="495" type="line" smooth="yes"/>
      <point x="445" y="495"/>
      <point x="447.0" y="497.0"/>
      <point x="447" y="500" type="curve" smooth="yes"/>
      <point x="447.0" y="503.0"/>
      <point x="445" y="505"/>
      <point x="442" y="505" type="curve" smooth="yes"/>
      <point x="36" y="505" type="line" smooth="yes"/>
      <point x="33.0" y="505.0"/>
      <point x="31.0" y="503.0"/>
    </contour>
    <contour>
      <point x="144" y="819" type="line" smooth="yes"/>
      <point x="156" y="817"/>
      <point x="160" y="809"/>
      <point x="160" y="799" type="curve" smooth="yes"/>
      <point x="160" y="121" type="line" smooth="yes"/>
      <point x="160" y="25"/>
      <point x="221" y="-21"/>
      <point x="312" y="-21" type="curve" smooth="yes"/>
      <point x="370" y="-21"/>
      <point x="416" y="7"/>
      <point x="450" y="73" type="curve" smooth="yes"/>
      <point x="452" y="79"/>
      <point x="448" y="81"/>
      <point x="446" y="77" type="curve" smooth="yes"/>
      <point x="422" y="27"/>
      <point x="378" y="-1"/>
      <point x="322" y="-1" type="curve" smooth="yes"/>
      <point x="254" y="-1"/>
      <point x="214" y="43"/>
      <point x="214" y="135" type="curve" smooth="yes"/>
      <point x="214" y="1025" type="line" smooth="yes"/>
      <point x="214" y="1027"/>
      <point x="212" y="1029"/>
      <point x="210" y="1029" type="curve" smooth="yes"/>
      <point x="206" y="1029"/>
      <point x="206" y="1027"/>
      <point x="204" y="1023" type="curve" smooth="yes"/>
      <point x="160" y="857" type="line" smooth="yes"/>
      <point x="158" y="847"/>
      <point x="152" y="843"/>
      <point x="136" y="843" type="curve" smooth="yes"/>
      <point x="36" y="843" type="line" smooth="yes"/>
      <point x="34" y="843"/>
      <point x="32" y="841"/>
      <point x="32" y="839" type="curve" smooth="yes"/>
      <point x="32" y="835"/>
      <point x="34" y="834"/>
      <point x="38" y="833" type="curve" smooth="yes"/>
    </contour>
    <contour>
      <point x="186" y="831" type="line"/>
      <point x="432" y="831" type="line" smooth="yes"/>
      <point x="442" y="831"/>
      <point x="448" y="833"/>
      <point x="448" y="837" type="curve" smooth="yes"/>
      <point x="448" y="841"/>
      <point x="446" y="843"/>
      <point x="440" y="843" type="curve" smooth="yes"/>
      <point x="186" y="843" type="line"/>
    </contour>
  </outline>
</glyph>
<glyph name="Ohorn" format="2">
  <advance width="1432"/>
  <unicode hex="01A0"/>
  <outline>
    <contour>
      <point x="1293" y="1590" type="curve" smooth="yes"/>
      <point x="1293" y="1621"/>
      <point x="1279" y="1639"/>
      <point x="1256" y="1639" type="curve" smooth="yes"/>
      <point x="1232" y="1639"/>
      <point x="1218" y="1620"/>
      <point x="1218" y="1588" type="curve" smooth="yes"/>
      <point x="1218" y="1544" type="line" smooth="yes"/>
      <point x="1218" y="1427"/>
      <point x="1101" y="1357"/>
      <point x="855" y="1407" type="curve" smooth="yes"/>
      <point x="850" y="1408"/>
      <point x="848" y="1406"/>
      <point x="848" y="1403" type="curve" smooth="yes"/>
      <point x="848" y="1399"/>
      <point x="849" y="1398"/>
      <point x="855" y="1397" type="curve" smooth="yes"/>
      <point x="1141" y="1342"/>
      <point x="1293" y="1451"/>
    </contour>
    <component base="O"/>
  </outline>
</glyph>
<glyph name="uhorn" format="2">
  <advance width="903"/>
  <unicode hex="01B0"/>
  <anchor x="445" y="966" name="center"/>
  <outline>
    <contour>
      <point x="1006" y="1046" type="curve" smooth="yes"/>
      <point x="1006" y="1077"/>
      <point x="992" y="1095"/>
      <point x="969" y="1095" type="curve" smooth="yes"/>
      <point x="945" y="1095"/>
      <point x="931" y="1076"/>
      <point x="931" y="1044" type="curve" smooth="yes"/>
      <point x="931" y="1000" type="line" smooth="yes"/>
      <point x="931" y="913"/>
      <point x="876" y="860"/>
      <point x="762" y="860" type="curve" smooth="yes"/>
      <point x="760" y="860"/>
      <point x="758" y="859"/>
      <point x="758" y="855" type="curve" smooth="yes"/>
      <point x="758" y="853"/>
      <point x="759" y="851"/>
      <point x="761" y="851" type="curve" smooth="yes"/>
      <point x="920" y="849"/>
      <point x="1006" y="934"/>
    </contour>
    <component base="u"/>
  </outline>
</glyph>
<glyph name="apostrophemod" format="2">
  <advance width="195"/>
  <unicode hex="02BC"/>
  <outline>
    <contour>
      <point x="131" y="1366" type="curve" smooth="yes"/>
      <point x="149" y="1366" type="line" smooth="yes"/>
      <point x="159" y="1366"/>
      <point x="163" y="1359"/>
      <point x="163" y="1349" type="curve" smooth="yes"/>
      <point x="163" y="1266"/>
      <point x="116" y="1158"/>
      <point x="38" y="1122" type="curve" smooth="yes"/>
      <point x="35" y="1121"/>
      <point x="35" y="1116"/>
      <point x="36" y="1115" type="curve" smooth="yes"/>
      <point x="38" y="1113"/>
      <point x="39" y="1114"/>
      <point x="44" y="1116" type="curve" smooth="yes"/>
      <point x="118" y="1151"/>
      <point x="175" y="1247"/>
      <point x="175" y="1382" type="curve" smooth="yes"/>
      <point x="175" y="1444"/>
      <point x="156" y="1479"/>
      <point x="124" y="1479" type="curve" smooth="yes"/>
      <point x="97" y="1479"/>
      <point x="78" y="1456"/>
      <point x="78" y="1421" type="curve" smooth="yes"/>
      <point x="78" y="1389"/>
      <point x="96" y="1366"/>
    </contour>
  </outline>
</glyph>
<glyph name="macroncmb" format="2">
  <unicode hex="0304"/>
  <outline>
    <contour>
      <point x="50" y="1015" type="curve" smooth="yes"/>
      <point x="50" y="1005"/>
      <point x="56" y="1000"/>
      <point x="66" y="1000" type="curve" smooth="yes"/>
      <point x="428" y="1000" type="line" smooth="yes"/>
      <point x="438" y="1000"/>
      <point x="444" y="1005"/>
      <point x="444" y="1015" type="curve" smooth="yes"/>
      <point x="444" y="1025"/>
      <point x="438" y="1030"/>
      <point x="428" y="1030" type="curve" smooth="yes"/>
      <point x="66" y="1030" type="line" smooth="yes"/>
      <point x="56" y="1030"/>
      <point x="50" y="1025"/>
    </contour>
  </outline>
</glyph>
<glyph name="dotaccentcmb" format="2">
  <advance width="188"/>
  <unicode hex="0307"/>
  <outline>
    <contour>
      <point x="94" y="957" type="curve" smooth="yes"/>
      <point x="121" y="957"/>
      <point x="138" y="984"/>
      <point x="138" y="1015" type="curve" smooth="yes"/>
      <point x="138" y="1046"/>
      <point x="121" y="1072"/>
      <point x="94" y="1072" type="curve" smooth="yes"/>
      <point x="68" y="1072"/>
      <point x="50" y="1046"/>
      <point x="50" y="1015" type="curve" smooth="yes"/>
      <point x="50" y="984"/>
      <point x="68" y="957"/>
    </contour>
  </outline>
</glyph>
<glyph name="ringcomb" format="2">
  <unicode hex="030A"/>
  <outline>
    <contour>
      <point x="188" y="920" type="curve" smooth="yes"/>
      <point x="263" y="920"/>
      <point x="325" y="982"/>
      <point x="325" y="1058" type="curve" smooth="yes"/>
      <point x="325" y="1133"/>
      <point x="263" y="1195"/>
      <point x="188" y="1195" type="curve" smooth="yes"/>
      <point x="112" y="1195"/>
      <point x="50" y="1133"/>
      <point x="50" y="1058" type="curve" smooth="yes"/>
      <point x="50" y="982"/>
      <point x="112" y="920"/>
    </contour>
    <contour>
      <point x="188" y="1164" type="curve" smooth="yes"/>
      <point x="246" y="1164"/>
      <point x="291" y="1117"/>
      <point x="291" y="1058" type="curve" smooth="yes"/>
      <point x="291" y="999"/>
      <point x="246" y="951"/>
      <point x="188" y="951" type="curve" smooth="yes"/>
      <point x="131" y="951"/>
      <point x="84" y="999"/>
      <point x="84" y="1058" type="curve" smooth="yes"/>
      <point x="84" y="1117"/>
      <point x="131" y="1164"/>
    </contour>
  </outline>
</glyph>
<glyph name="horncmb" format="2">
  <advance width="455"/>
  <unicode hex="031B"/>
  <outline>
    <contour>
      <point x="405" y="1046" type="curve" smooth="yes"/>
      <point x="405" y="1077"/>
      <point x="391" y="1095"/>
      <point x="368" y="1095" type="curve" smooth="yes"/>
      <point x="344" y="1095"/>
      <point x="330" y="1076"/>
      <point x="330" y="1044" type="curve" smooth="yes"/>
      <point x="330" y="1000" type="line" smooth="yes"/>
      <point x="330" y="883"/>
      <point x="244" y="825"/>
      <point x="57" y="863" type="curve" smooth="yes"/>
      <point x="52" y="864"/>
      <point x="50" y="862"/>
      <point x="50" y="859" type="curve" smooth="yes"/>
      <point x="50" y="855"/>
      <point x="51" y="854"/>
      <point x="57" y="853" type="curve" smooth="yes"/>
      <point x="286" y="809"/>
      <point x="405" y="907"/>
    </contour>
  </outline>
</glyph>
<glyph name="dieresisbelowcmb" format="2">
  <advance width="444"/>
  <unicode hex="0324"/>
  <outline>
    <contour>
      <point x="95" y="-225" type="curve" smooth="yes"/>
      <point x="120" y="-225"/>
      <point x="139" y="-198"/>
      <point x="139" y="-167" type="curve" smooth="yes"/>
      <point x="139" y="-136"/>
      <point x="120" y="-110"/>
      <point x="95" y="-110" type="curve" smooth="yes"/>
      <point x="68" y="-110"/>
      <point x="50" y="-136"/>
      <point x="50" y="-167" type="curve" smooth="yes"/>
      <point x="50" y="-198"/>
      <point x="68" y="-225"/>
    </contour>
    <contour>
      <point x="350" y="-225" type="curve" smooth="yes"/>
      <point x="377" y="-225"/>
      <point x="394" y="-198"/>
      <point x="394" y="-167" type="curve" smooth="yes"/>
      <point x="394" y="-136"/>
      <point x="377" y="-110"/>
      <point x="350" y="-110" type="curve" smooth="yes"/>
      <point x="324" y="-110"/>
      <point x="306" y="-136"/>
      <point x="306" y="-167" type="curve" smooth="yes"/>
      <point x="306" y="-198"/>
      <point x="324" y="-225"/>
    </contour>
  </outline>
</glyph>
<glyph name="belowbrevecmb" format="2">
  <advance width="454"/>
  <unicode hex="032E"/>
  <outline>
    <contour>
      <point x="227" y="-275" type="curve"/>
      <point x="145" y="-275"/>
      <point x="85" y="-235"/>
      <point x="67" y="-123" type="curve" smooth="yes"/>
      <point x="65" y="-112"/>
      <point x="61" y="-110"/>
      <point x="57" y="-110" type="curve" smooth="yes"/>
      <point x="53" y="-110"/>
      <point x="49" y="-114"/>
      <point x="50" y="-125" type="curve" smooth="yes"/>
      <point x="61" y="-248"/>
      <point x="113" y="-334"/>
      <point x="227" y="-334" type="curve" smooth="yes"/>
      <point x="341" y="-334"/>
      <point x="393" y="-248"/>
      <point x="404" y="-125" type="curve" smooth="yes"/>
      <point x="405" y="-114"/>
      <point x="401" y="-110"/>
      <point x="397" y="-110" type="curve" smooth="yes"/>
      <point x="393" y="-110"/>
      <point x="389" y="-112"/>
      <point x="387" y="-123" type="curve" smooth="yes"/>
      <point x="369" y="-235"/>
      <point x="309" y="-275"/>
    </contour>
  </outline>
</glyph>
<glyph name="macronbelowcmb" format="2">
  <unicode hex="0331"/>
  <outline>
    <contour>
      <point x="50" y="-167" type="curve" smooth="yes"/>
      <point x="50" y="-177"/>
      <point x="56" y="-182"/>
      <point x="66" y="-182" type="curve" smooth="yes"/>
      <point x="428" y="-182" type="line" smooth="yes"/>
      <point x="438" y="-182"/>
      <point x="444" y="-177"/>
      <point x="444" y="-167" type="curve" smooth="yes"/>
      <point x="444" y="-157"/>
      <point x="438" y="-152"/>
      <point x="428" y="-152" type="curve" smooth="yes"/>
      <point x="66" y="-152" type="line" smooth="yes"/>
      <point x="56" y="-152"/>
      <point x="50" y="-157"/>
    </contour>
  </outline>
</glyph>
<glyph name="emdash" format="2">
  <advance width="1364"/>
  <unicode hex="2014"/>
  <outline>
    <contour>
      <point x="20" y="477" type="curve" smooth="yes"/>
      <point x="20" y="461"/>
      <point x="25" y="458"/>
      <point x="41" y="458" type="curve" smooth="yes"/>
      <point x="1323" y="458" type="line" smooth="yes"/>
      <point x="1337" y="458"/>
      <point x="1344" y="461"/>
      <point x="1344" y="477" type="curve" smooth="yes"/>
      <point x="1344" y="493"/>
      <point x="1337" y="496"/>
      <point x="1323" y="496" type="curve" smooth="yes"/>
      <point x="41" y="496" type="line" smooth="yes"/>
      <point x="25" y="496"/>
      <point x="20" y="493"/>
    </contour>
  </outline>
</glyph>
<glyph name="quotedblbase" format="2">
  <advance width="388"/>
  <unicode hex="201E"/>
  <outline>
    <contour>
      <point x="294" y="0" type="curve" smooth="yes"/>
      <point x="312" y="0" type="line" smooth="yes"/>
      <point x="322" y="0"/>
      <point x="326" y="-7"/>
      <point x="326" y="-17" type="curve" smooth="yes"/>
      <point x="326" y="-100"/>
      <point x="279" y="-208"/>
      <point x="201" y="-244" type="curve" smooth="yes"/>
      <point x="198" y="-245"/>
      <point x="198" y="-250"/>
      <point x="199" y="-251" type="curve" smooth="yes"/>
      <point x="201" y="-253"/>
      <point x="202" y="-252"/>
      <point x="207" y="-250" type="curve" smooth="yes"/>
      <point x="281" y="-215"/>
      <point x="338" y="-119"/>
      <point x="338" y="16" type="curve" smooth="yes"/>
      <point x="338" y="78"/>
      <point x="319" y="113"/>
      <point x="287" y="113" type="curve" smooth="yes"/>
      <point x="260" y="113"/>
      <point x="241" y="90"/>
      <point x="241" y="55" type="curve" smooth="yes"/>
      <point x="241" y="23"/>
      <point x="259" y="0"/>
    </contour>
    <contour>
      <point x="136" y="0" type="curve" smooth="yes"/>
      <point x="154" y="0" type="line" smooth="yes"/>
      <point x="164" y="0"/>
      <point x="168" y="-7"/>
      <point x="168" y="-17" type="curve" smooth="yes"/>
      <point x="168" y="-100"/>
      <point x="121" y="-208"/>
      <point x="43" y="-244" type="curve" smooth="yes"/>
      <point x="40" y="-245"/>
      <point x="40" y="-250"/>
      <point x="41" y="-251" type="curve" smooth="yes"/>
      <point x="43" y="-253"/>
      <point x="44" y="-252"/>
      <point x="49" y="-250" type="curve" smooth="yes"/>
      <point x="123" y="-215"/>
      <point x="180" y="-119"/>
      <point x="180" y="16" type="curve" smooth="yes"/>
      <point x="180" y="78"/>
      <point x="161" y="113"/>
      <point x="129" y="113" type="curve" smooth="yes"/>
      <point x="102" y="113"/>
      <point x="83" y="90"/>
      <point x="83" y="55" type="curve" smooth="yes"/>
      <point x="83" y="23"/>
      <point x="101" y="0"/>
    </contour>
  </outline>
</glyph>
<glyph name="minute" format="2">
  <advance width="212"/>
  <unicode hex="2032"/>
  <outline>
    <contour>
      <point x="38" y="1098" type="curve" smooth="yes"/>
      <point x="40" y="1098"/>
      <point x="41" y="1099"/>
      <point x="43" y="1103" type="curve" smooth="yes"/>
      <point x="189" y="1478" type="line" smooth="yes"/>
      <point x="197" y="1498"/>
      <point x="188" y="1510"/>
      <point x="173" y="1510" type="curve" smooth="yes"/>
      <point x="162" y="1510"/>
      <point x="154" y="1502"/>
      <point x="150" y="1488" type="curve" smooth="yes"/>
      <point x="35" y="1103" type="line" smooth="yes"/>
      <point x="34" y="1100"/>
      <point x="36" y="1098"/>
    </contour>
  </outline>
</glyph>
<glyph name="guilsinglleft" format="2">
  <advance width="536"/>
  <unicode hex="2039"/>
  <outline>
    <contour>
      <point x="100" y="465" type="curve" smooth="yes"/>
      <point x="100.0" y="459.0"/>
      <point x="103" y="452"/>
      <point x="125" y="440" type="curve" smooth="yes"/>
      <point x="231" y="383"/>
      <point x="365" y="283"/>
      <point x="446" y="202" type="curve" smooth="yes"/>
      <point x="450" y="198"/>
      <point x="455" y="196"/>
      <point x="456" y="197" type="curve" smooth="yes"/>
      <point x="457" y="198"/>
      <point x="456" y="200"/>
      <point x="451" y="206" type="curve" smooth="yes"/>
      <point x="385" y="287"/>
      <point x="223" y="425"/>
      <point x="160" y="469" type="curve"/>
      <point x="160" y="461" type="line"/>
      <point x="223" y="505"/>
      <point x="385" y="643"/>
      <point x="451" y="724" type="curve" smooth="yes"/>
      <point x="456" y="730"/>
      <point x="457" y="732"/>
      <point x="456" y="733" type="curve" smooth="yes"/>
      <point x="455" y="734"/>
      <point x="450" y="732"/>
      <point x="446" y="728" type="curve" smooth="yes"/>
      <point x="377.0" y="659.0"/>
      <point x="260" y="564"/>
      <point x="125" y="490" type="curve" smooth="yes"/>
      <point x="103" y="478"/>
      <point x="100" y="471"/>
    </contour>
  </outline>
</glyph>
<glyph name="colonmonetary" format="2">
  <advance width="1089"/>
  <unicode hex="20A1"/>
  <outline>
    <contour>
      <point x="860" y="-25"/>
      <point x="1024" y="134"/>
      <point x="1057" y="326" type="curve" smooth="yes"/>
      <point x="1058" y="331"/>
      <point x="1055" y="333"/>
      <point x="1052" y="333" type="curve" smooth="yes"/>
      <point x="1049" y="333"/>
      <point x="1048" y="331"/>
      <point x="1047" y="326" type="curve" smooth="yes"/>
      <point x="1010" y="126"/>
      <point x="874" y="1"/>
      <point x="662" y="1" type="curve" smooth="yes"/>
      <point x="363" y="1"/>
      <point x="143" y="246"/>
      <point x="143" y="708" type="curve" smooth="yes"/>
      <point x="143" y="1162"/>
      <point x="348" y="1410"/>
      <point x="659" y="1410" type="curve" smooth="yes"/>
      <point x="887" y="1410"/>
      <point x="987" y="1314"/>
      <point x="1000" y="1089" type="curve" smooth="yes"/>
      <point x="1000" y="1084"/>
      <point x="1004" y="1081"/>
      <point x="1007" y="1081" type="curve" smooth="yes"/>
      <point x="1013" y="1081"/>
      <point x="1013" y="1084"/>
      <point x="1014" y="1088" type="curve" smooth="yes"/>
      <point x="1051" y="1240" type="line" smooth="yes"/>
      <point x="1054" y="1251"/>
      <point x="1054" y="1256"/>
      <point x="1048" y="1263" type="curve" smooth="yes"/>
      <point x="979" y="1348"/>
      <point x="836" y="1420"/>
      <point x="658" y="1420" type="curve" smooth="yes"/>
      <point x="335" y="1420"/>
      <point x="88" y="1146"/>
      <point x="88" y="688" type="curve" smooth="yes"/>
      <point x="88" y="257"/>
      <point x="287" y="-25"/>
      <point x="650" y="-25" type="curve" smooth="yes"/>
    </contour>
    <contour>
      <point x="461" y="-107" type="curve" smooth="yes"/>
      <point x="465" y="-108"/>
      <point x="467" y="-105"/>
      <point x="468" y="-101" type="curve" smooth="yes"/>
      <point x="499" y="11" type="line"/>
      <point x="876" y="1370" type="line"/>
      <point x="903" y="1469" type="line" smooth="yes"/>
      <point x="904" y="1474"/>
      <point x="904" y="1477"/>
      <point x="900" y="1478" type="curve" smooth="yes"/>
      <point x="896" y="1479"/>
      <point x="894" y="1476"/>
      <point x="893" y="1472" type="curve" smooth="yes"/>
      <point x="866" y="1375" type="line"/>
      <point x="489" y="15" type="line"/>
      <point x="458" y="-98" type="line" smooth="yes"/>
      <point x="457" y="-103"/>
      <point x="457" y="-106"/>
    </contour>
    <contour>
      <point x="296" y="-87" type="curve" smooth="yes"/>
      <point x="300" y="-88"/>
      <point x="302" y="-85"/>
      <point x="303" y="-81" type="curve" smooth="yes"/>
      <point x="349" y="84" type="line"/>
      <point x="717" y="1412" type="line"/>
      <point x="738" y="1489" type="line" smooth="yes"/>
      <point x="739" y="1494"/>
      <point x="739" y="1497"/>
      <point x="735" y="1498" type="curve" smooth="yes"/>
      <point x="731" y="1499"/>
      <point x="729" y="1496"/>
      <point x="728" y="1492" type="curve" smooth="yes"/>
      <point x="706" y="1413" type="line"/>
      <point x="339" y="89" type="line"/>
      <point x="293" y="-78" type="line" smooth="yes"/>
      <point x="292" y="-83"/>
      <point x="292" y="-86"/>
    </contour>
  </outline>
</glyph>
<glyph name="peseta" format="2">
  <advance width="1304"/>
  <unicode hex="20A7"/>
  <outline>
    <contour>
      <point x="886" y="906" type="curve" smooth="yes"/>
      <point x="886" y="1205"/>
      <point x="683" y="1400"/>
      <point x="394" y="1400" type="curve" smooth="yes"/>
      <point x="85" y="1400" type="line" smooth="yes"/>
      <point x="81" y="1400"/>
      <point x="78" y="1399"/>
      <point x="78" y="1396" type="curve" smooth="yes"/>
      <point x="78" y="1394"/>
      <point x="80" y="1392"/>
      <point x="83" y="1392" type="curve" smooth="yes"/>
      <point x="211" y="1375" type="line" smooth="yes"/>
      <point x="224" y="1373"/>
      <point x="230" y="1365"/>
      <point x="230" y="1353" type="curve" smooth="yes"/>
      <point x="230" y="47" type="line" smooth="yes"/>
      <point x="230" y="35"/>
      <point x="224" y="27"/>
      <point x="208" y="25" type="curve" smooth="yes"/>
      <point x="84" y="8" type="line" smooth="yes"/>
      <point x="80" y="7"/>
      <point x="78" y="6"/>
      <point x="78" y="4" type="curve" smooth="yes"/>
      <point x="78" y="1"/>
      <point x="81" y="0"/>
      <point x="85" y="0" type="curve" smooth="yes"/>
      <point x="434" y="0" type="line" smooth="yes"/>
      <point x="438" y="0"/>
      <point x="440" y="1"/>
      <point x="440" y="4" type="curve" smooth="yes"/>
      <point x="440" y="6"/>
      <point x="438" y="7"/>
      <point x="434" y="8" type="curve" smooth="yes"/>
      <point x="309" y="25" type="line" smooth="yes"/>
      <point x="294" y="27"/>
      <point x="288" y="35"/>
      <point x="288" y="46" type="curve" smooth="yes"/>
      <point x="288" y="1390" type="line"/>
      <point x="394" y="1390" type="line" smooth="yes"/>
      <point x="656" y="1390"/>
      <point x="826" y="1203"/>
      <point x="826" y="910" type="curve" smooth="yes"/>
      <point x="826.0" y="680.0"/>
      <point x="706.7889273356402" y="496.0"/>
      <point x="507" y="496" type="curve" smooth="yes"/>
      <point x="439.60377358490564" y="496.0"/>
      <point x="349.90862622366416" y="512.4639616434351"/>
      <point x="272" y="567" type="curve"/>
      <point x="268" y="563" type="line"/>
      <point x="351.9375235510098" y="503.4629193417256"/>
      <point x="438.3884892086331" y="482.0"/>
      <point x="516" y="482" type="curve" smooth="yes"/>
      <point x="734.7352941176471" y="482.0"/>
      <point x="886.0" y="652.0"/>
    </contour>
    <contour>
      <point x="974" y="826" type="line" smooth="yes"/>
      <point x="986" y="824"/>
      <point x="990" y="816"/>
      <point x="990" y="806" type="curve" smooth="yes"/>
      <point x="990" y="128" type="line" smooth="yes"/>
      <point x="990" y="32"/>
      <point x="1051" y="-14"/>
      <point x="1142" y="-14" type="curve" smooth="yes"/>
      <point x="1200" y="-14"/>
      <point x="1246" y="14"/>
      <point x="1280" y="80" type="curve" smooth="yes"/>
      <point x="1282" y="86"/>
      <point x="1278" y="88"/>
      <point x="1276" y="84" type="curve" smooth="yes"/>
      <point x="1252" y="34"/>
      <point x="1208" y="6"/>
      <point x="1152" y="6" type="curve" smooth="yes"/>
      <point x="1084" y="6"/>
      <point x="1044" y="50"/>
      <point x="1044" y="142" type="curve" smooth="yes"/>
      <point x="1044" y="1032" type="line" smooth="yes"/>
      <point x="1044" y="1034"/>
      <point x="1042" y="1036"/>
      <point x="1040" y="1036" type="curve" smooth="yes"/>
      <point x="1036" y="1036"/>
      <point x="1036" y="1034"/>
      <point x="1034" y="1030" type="curve" smooth="yes"/>
      <point x="990" y="864" type="line" smooth="yes"/>
      <point x="988" y="854"/>
      <point x="982" y="850"/>
      <point x="966" y="850" type="curve" smooth="yes"/>
      <point x="868" y="850" type="line"/>
      <point x="868" y="840" type="line"/>
    </contour>
    <contour>
      <point x="1016" y="838" type="line"/>
      <point x="1262" y="838" type="line" smooth="yes"/>
      <point x="1272" y="838"/>
      <point x="1278" y="840"/>
      <point x="1278" y="844" type="curve" smooth="yes"/>
      <point x="1278" y="848"/>
      <point x="1276" y="850"/>
      <point x="1270" y="850" type="curve" smooth="yes"/>
      <point x="1016" y="850" type="line"/>
    </contour>
  </outline>
</glyph>
<glyph name="dong" format="2">
  <advance width="897"/>
  <unicode hex="20AB"/>
  <outline>
    <contour>
      <point x="106" y="-175" type="curve" smooth="yes"/>
      <point x="106" y="-178"/>
      <point x="108" y="-180"/>
      <point x="111" y="-180" type="curve" smooth="yes"/>
      <point x="866" y="-180" type="line" smooth="yes"/>
      <point x="869" y="-180"/>
      <point x="871" y="-178"/>
      <point x="871" y="-175" type="curve" smooth="yes"/>
      <point x="871" y="-172"/>
      <point x="869" y="-170"/>
      <point x="866" y="-170" type="curve" smooth="yes"/>
      <point x="111" y="-170" type="line" smooth="yes"/>
      <point x="108" y="-170"/>
      <point x="106" y="-172"/>
    </contour>
    <component base="dcroat"/>
  </outline>
</glyph>
<glyph name="indianrupee" format="2">
  <advance width="819"/>
  <unicode hex="20B9"/>
  <outline>
    <contour>
      <point x="266" y="1393" type="line"/>
      <point x="289" y="1393" type="line" smooth="yes"/>
      <point x="446" y="1393"/>
      <point x="566" y="1250"/>
      <point x="566" y="1029" type="curve" smooth="yes"/>
      <point x="566" y="796"/>
      <point x="437" y="678"/>
      <point x="193" y="678" type="curve" smooth="yes"/>
      <point x="166" y="678"/>
      <point x="152" y="678"/>
      <point x="131" y="678" type="curve" smooth="yes"/>
      <point x="126" y="678"/>
      <point x="124" y="676"/>
      <point x="124" y="672" type="curve" smooth="yes"/>
      <point x="124" y="667"/>
      <point x="127" y="662"/>
      <point x="133" y="654" type="curve" smooth="yes"/>
      <point x="617" y="11" type="line" smooth="yes"/>
      <point x="623" y="4"/>
      <point x="630" y="0"/>
      <point x="642" y="0" type="curve" smooth="yes"/>
      <point x="676" y="0" type="line" smooth="yes"/>
      <point x="682" y="0"/>
      <point x="687" y="5"/>
      <point x="687" y="12" type="curve" smooth="yes"/>
      <point x="687" y="20"/>
      <point x="684" y="26"/>
      <point x="678" y="33" type="curve" smooth="yes"/>
      <point x="196" y="673" type="line"/>
      <point x="197" y="665" type="line"/>
      <point x="443" y="665"/>
      <point x="626" y="799"/>
      <point x="626" y="1029" type="curve" smooth="yes"/>
      <point x="626" y="1245"/>
      <point x="480" y="1400"/>
      <point x="290" y="1400" type="curve" smooth="yes"/>
      <point x="268" y="1400" type="line"/>
    </contour>
    <contour>
      <point x="98" y="1395" type="curve" smooth="yes"/>
      <point x="98.0" y="1392"/>
      <point x="100.0" y="1390"/>
      <point x="103" y="1390" type="curve" smooth="yes"/>
      <point x="768" y="1390" type="line" smooth="yes"/>
      <point x="771" y="1390"/>
      <point x="773.0" y="1392"/>
      <point x="773" y="1395" type="curve" smooth="yes"/>
      <point x="773" y="1398"/>
      <point x="771" y="1400"/>
      <point x="768" y="1400" type="curve" smooth="yes"/>
      <point x="103" y="1400" type="line" smooth="yes"/>
      <point x="100.0" y="1400.0"/>
      <point x="98" y="1398"/>
    </contour>
    <contour>
      <point x="98" y="1120" type="curve" smooth="yes"/>
      <point x="98" y="1117"/>
      <point x="100.0" y="1115.0"/>
      <point x="103" y="1115" type="curve" smooth="yes"/>
      <point x="768" y="1115" type="line" smooth="yes"/>
      <point x="771.0" y="1115"/>
      <point x="773" y="1117"/>
      <point x="773" y="1120" type="curve" smooth="yes"/>
      <point x="773.0" y="1123"/>
      <point x="771.0" y="1125"/>
      <point x="768" y="1125" type="curve" smooth="yes"/>
      <point x="103" y="1125" type="line" smooth="yes"/>
      <point x="100.0" y="1125.0"/>
      <point x="98" y="1123"/>
    </contour>
  </outline>
</glyph>
<glyph name="numero" format="2">
  <advance width="1926"/>
  <unicode hex="2116"/>
  <outline>
    <contour>
      <point x="1197" y="204" type="curve" smooth="yes"/>
      <point x="1197" y="201"/>
      <point x="1199" y="199"/>
      <point x="1202" y="199" type="curve" smooth="yes"/>
      <point x="1795" y="199" type="line" smooth="yes"/>
      <point x="1798.0" y="199.0"/>
      <point x="1800.0" y="201.0"/>
      <point x="1800" y="204" type="curve" smooth="yes"/>
      <point x="1800" y="207"/>
      <point x="1798" y="209"/>
      <point x="1795" y="209" type="curve" smooth="yes"/>
      <point x="1202" y="209" type="line" smooth="yes"/>
      <point x="1199" y="209"/>
      <point x="1197.0" y="207"/>
    </contour>
    <contour>
      <point x="464" y="4" type="curve" smooth="yes"/>
      <point x="464" y="6"/>
      <point x="462" y="6"/>
      <point x="456" y="8" type="curve" smooth="yes"/>
      <point x="256" y="42" type="line" smooth="yes"/>
      <point x="238" y="46"/>
      <point x="232" y="50"/>
      <point x="232" y="68" type="curve" smooth="yes"/>
      <point x="232" y="1242" type="line"/>
      <point x="220" y="1242" type="line"/>
      <point x="944" y="30" type="line" smooth="yes"/>
      <point x="949" y="22"/>
      <point x="952" y="18"/>
      <point x="952" y="12" type="curve" smooth="yes"/>
      <point x="952" y="4"/>
      <point x="956" y="0"/>
      <point x="968" y="0" type="curve" smooth="yes"/>
      <point x="1028" y="0" type="line" smooth="yes"/>
      <point x="1034" y="0"/>
      <point x="1036" y="0"/>
      <point x="1036" y="2" type="curve" smooth="yes"/>
      <point x="1036" y="4"/>
      <point x="1030" y="12"/>
      <point x="1024" y="20" type="curve" smooth="yes"/>
      <point x="960" y="108" type="line" smooth="yes"/>
      <point x="953" y="118"/>
      <point x="948" y="128"/>
      <point x="948" y="142" type="curve" smooth="yes"/>
      <point x="948" y="1332" type="line" smooth="yes"/>
      <point x="948" y="1350"/>
      <point x="954" y="1353"/>
      <point x="972" y="1358" type="curve" smooth="yes"/>
      <point x="1092" y="1392" type="line" smooth="yes"/>
      <point x="1098" y="1394"/>
      <point x="1100" y="1394"/>
      <point x="1100" y="1396" type="curve" smooth="yes"/>
      <point x="1100" y="1398"/>
      <point x="1098" y="1400"/>
      <point x="1094" y="1400" type="curve" smooth="yes"/>
      <point x="710" y="1400" type="line" smooth="yes"/>
      <point x="706" y="1400"/>
      <point x="704" y="1398"/>
      <point x="704" y="1396" type="curve" smooth="yes"/>
      <point x="704" y="1394"/>
      <point x="706" y="1393"/>
      <point x="712" y="1392" type="curve" smooth="yes"/>
      <point x="908" y="1358" type="line" smooth="yes"/>
      <point x="928" y="1355"/>
      <point x="936" y="1350"/>
      <point x="936" y="1332" type="curve" smooth="yes"/>
      <point x="936" y="132" type="line"/>
      <point x="942" y="134" type="line"/>
      <point x="204" y="1366" type="line" smooth="yes"/>
      <point x="190" y="1389"/>
      <point x="186" y="1400"/>
      <point x="176" y="1400" type="curve" smooth="yes"/>
      <point x="116" y="1400" type="line" smooth="yes"/>
      <point x="112" y="1400"/>
      <point x="110" y="1400"/>
      <point x="110" y="1398" type="curve" smooth="yes"/>
      <point x="110" y="1396"/>
      <point x="111" y="1395"/>
      <point x="114" y="1390" type="curve" smooth="yes"/>
      <point x="202" y="1268" type="line" smooth="yes"/>
      <point x="220" y="1244"/>
      <point x="220" y="1238"/>
      <point x="220" y="1216" type="curve" smooth="yes"/>
      <point x="220" y="68" type="line" smooth="yes"/>
      <point x="220" y="50"/>
      <point x="214" y="48"/>
      <point x="196" y="42" type="curve" smooth="yes"/>
      <point x="76" y="8" type="line" smooth="yes"/>
      <point x="70" y="6"/>
      <point x="68" y="6"/>
      <point x="68" y="4" type="curve" smooth="yes"/>
      <point x="68" y="2"/>
      <point x="70" y="0"/>
      <point x="74" y="0" type="curve" smooth="yes"/>
      <point x="458" y="0" type="line" smooth="yes"/>
      <point x="462" y="0"/>
      <point x="464" y="2"/>
    </contour>
    <contour>
      <point x="1494" y="1263" type="curve" smooth="yes"/>
      <point x="1267" y="1263"/>
      <point x="1122" y="1080"/>
      <point x="1122" y="815" type="curve" smooth="yes"/>
      <point x="1122" y="551"/>
      <point x="1275" y="373"/>
      <point x="1488" y="373" type="curve" smooth="yes"/>
      <point x="1706" y="373"/>
      <point x="1866" y="551"/>
      <point x="1866" y="815" type="curve" smooth="yes"/>
      <point x="1866" y="1078"/>
      <point x="1706" y="1263"/>
    </contour>
    <contour>
      <point x="1532" y="385" type="curve" smooth="yes"/>
      <point x="1344" y="371"/>
      <point x="1198" y="526"/>
      <point x="1178" y="789" type="curve" smooth="yes"/>
      <point x="1157" y="1052"/>
      <point x="1260" y="1240"/>
      <point x="1454" y="1254" type="curve" smooth="yes"/>
      <point x="1652" y="1268"/>
      <point x="1788" y="1126"/>
      <point x="1808" y="848" type="curve" smooth="yes"/>
      <point x="1828" y="576"/>
      <point x="1713" y="399"/>
    </contour>
  </outline>
</glyph>
<glyph name="ampersand.alt" format="2">
  <advance width="1362"/>
  <outline>
    <contour>
      <point x="581" y="1413" type="curve" smooth="yes"/>
      <point x="423.154" y="1413"/>
      <point x="310" y="1293"/>
      <point x="310" y="1113" type="curve" smooth="yes"/>
      <point x="310" y="948"/>
      <point x="387" y="850"/>
      <point x="495" y="822" type="curve" smooth="yes"/>
      <point x="568" y="803"/>
      <point x="598" y="770"/>
      <point x="634" y="726" type="curve" smooth="yes"/>
      <point x="1160" y="74" type="line" smooth="yes"/>
      <point x="1195" y="31"/>
      <point x="1226" y="13"/>
      <point x="1280" y="9" type="curve" smooth="yes"/>
      <point x="1284" y="9"/>
      <point x="1286" y="7"/>
      <point x="1286" y="3" type="curve" smooth="yes"/>
      <point x="1286" y="3"/>
      <point x="1286" y="0"/>
      <point x="1281" y="0" type="curve" smooth="yes"/>
      <point x="1172" y="0" type="line" smooth="yes"/>
      <point x="1157" y="0"/>
      <point x="1148" y="6"/>
      <point x="1140" y="17" type="curve" smooth="yes"/>
      <point x="609" y="686" type="line" smooth="yes"/>
      <point x="565" y="742"/>
      <point x="550" y="763"/>
      <point x="476" y="784" type="curve" smooth="yes"/>
      <point x="333" y="825"/>
      <point x="261" y="928"/>
      <point x="261" y="1098" type="curve" smooth="yes"/>
      <point x="261" y="1286"/>
      <point x="395" y="1422"/>
      <point x="582" y="1422" type="curve" smooth="yes"/>
      <point x="768" y="1422"/>
      <point x="873" y="1305"/>
      <point x="873" y="1140" type="curve" smooth="yes"/>
      <point x="873" y="955"/>
      <point x="760.013" y="830.138"/>
      <point x="534" y="793" type="curve"/>
      <point x="531" y="800" type="line"/>
      <point x="730.438" y="830.764"/>
      <point x="825" y="945"/>
      <point x="825" y="1121" type="curve" smooth="yes"/>
      <point x="825" y="1311"/>
      <point x="734" y="1413"/>
    </contour>
    <contour>
      <point x="503" y="785" type="line"/>
      <point x="308.009" y="758.001"/>
      <point x="178" y="593"/>
      <point x="178" y="399" type="curve" smooth="yes"/>
      <point x="178" y="160"/>
      <point x="315.072" y="13"/>
      <point x="527" y="13" type="curve" smooth="yes"/>
      <point x="689.869" y="13"/>
      <point x="855.644" y="91.14"/>
      <point x="948" y="286" type="curve"/>
      <point x="955" y="282" type="line"/>
      <point x="855.626" y="82.268"/>
      <point x="670.523" y="-20"/>
      <point x="499" y="-20" type="curve" smooth="yes"/>
      <point x="257" y="-20"/>
      <point x="128" y="162"/>
      <point x="128" y="374" type="curve" smooth="yes"/>
      <point x="128" y="580"/>
      <point x="290" y="769"/>
      <point x="501" y="791" type="curve"/>
    </contour>
    <contour>
      <point x="959" y="301" type="line"/>
      <point x="1126" y="682" type="line" smooth="yes"/>
      <point x="1150" y="737"/>
      <point x="1148" y="749"/>
      <point x="1097" y="760" type="curve" smooth="yes"/>
      <point x="982" y="783" type="line" smooth="yes"/>
      <point x="976" y="784"/>
      <point x="972" y="787"/>
      <point x="972" y="792" type="curve" smooth="yes"/>
      <point x="972" y="796"/>
      <point x="976" y="798"/>
      <point x="980" y="798" type="curve" smooth="yes"/>
      <point x="1320" y="798" type="line" smooth="yes"/>
      <point x="1324" y="798"/>
      <point x="1326" y="796"/>
      <point x="1326" y="794" type="curve" smooth="yes"/>
      <point x="1326" y="791"/>
      <point x="1323" y="789"/>
      <point x="1320" y="787" type="curve" smooth="yes"/>
      <point x="1197" y="760"/>
      <point x="1156" y="732"/>
      <point x="1133" y="679" type="curve" smooth="yes"/>
      <point x="964" y="295" type="line"/>
    </contour>
  </outline>
</glyph>
<glyph name="brevetilde.cap" format="2">
  <advance width="484"/>
  <outline>
    <contour>
      <point x="242" y="1039" type="curve" smooth="yes"/>
      <point x="160" y="1039"/>
      <point x="98" y="1074"/>
      <point x="82" y="1174" type="curve" smooth="yes"/>
      <point x="80" y="1185"/>
      <point x="76" y="1187"/>
      <point x="72" y="1187" type="curve" smooth="yes"/>
      <point x="68" y="1187"/>
      <point x="64" y="1183"/>
      <point x="65" y="1172" type="curve" smooth="yes"/>
      <point x="75" y="1059"/>
      <point x="128" y="980"/>
      <point x="242" y="980" type="curve" smooth="yes"/>
      <point x="356" y="980"/>
      <point x="409" y="1059"/>
      <point x="419" y="1172" type="curve" smooth="yes"/>
      <point x="420" y="1183"/>
      <point x="416" y="1187"/>
      <point x="412" y="1187" type="curve" smooth="yes"/>
      <point x="408" y="1187"/>
      <point x="404" y="1185"/>
      <point x="402" y="1174" type="curve" smooth="yes"/>
      <point x="386" y="1074"/>
      <point x="324" y="1039"/>
    </contour>
    <contour>
      <point x="328" y="1220" type="curve" smooth="yes"/>
      <point x="388" y="1220"/>
      <point x="424" y="1262"/>
      <point x="424" y="1349" type="curve" smooth="yes"/>
      <point x="424" y="1361"/>
      <point x="422" y="1363"/>
      <point x="416" y="1363" type="curve" smooth="yes"/>
      <point x="411" y="1363"/>
      <point x="409" y="1358"/>
      <point x="409" y="1349" type="curve" smooth="yes"/>
      <point x="409" y="1303"/>
      <point x="391" y="1275"/>
      <point x="353" y="1275" type="curve" smooth="yes"/>
      <point x="277" y="1275"/>
      <point x="230" y="1359"/>
      <point x="157" y="1359" type="curve" smooth="yes"/>
      <point x="96" y="1359"/>
      <point x="60" y="1317"/>
      <point x="60" y="1230" type="curve" smooth="yes"/>
      <point x="60" y="1218"/>
      <point x="62" y="1216"/>
      <point x="68" y="1216" type="curve" smooth="yes"/>
      <point x="73" y="1216"/>
      <point x="75" y="1221"/>
      <point x="75" y="1230" type="curve" smooth="yes"/>
      <point x="75" y="1276"/>
      <point x="93" y="1304"/>
      <point x="131" y="1304" type="curve" smooth="yes"/>
      <point x="207" y="1304"/>
      <point x="253" y="1220"/>
    </contour>
  </outline>
</glyph>
<glyph name="circumflex.cap" format="2">
  <advance width="498"/>
  <outline>
    <contour>
      <point x="250" y="1119" type="line"/>
      <point x="63" y="984" type="line" smooth="yes"/>
      <point x="58" y="980"/>
      <point x="54" y="977"/>
      <point x="51" y="980" type="curve" smooth="yes"/>
      <point x="49" y="982"/>
      <point x="49" y="986"/>
      <point x="54" y="992" type="curve" smooth="yes"/>
      <point x="212" y="1170" type="line" smooth="yes"/>
      <point x="226" y="1186"/>
      <point x="235" y="1195"/>
      <point x="249" y="1195" type="curve" smooth="yes"/>
      <point x="263" y="1195"/>
      <point x="272" y="1186"/>
      <point x="286" y="1170" type="curve" smooth="yes"/>
      <point x="444" y="992" type="line" smooth="yes"/>
      <point x="449" y="986"/>
      <point x="449" y="982"/>
      <point x="447" y="980" type="curve" smooth="yes"/>
      <point x="444" y="977"/>
      <point x="440" y="980"/>
      <point x="435" y="984" type="curve" smooth="yes"/>
      <point x="248" y="1119" type="line"/>
    </contour>
  </outline>
</glyph>
<glyph name="circumflexgrave" format="2">
  <advance width="498"/>
  <anchor x="251" y="1003" name="center"/>
  <outline>
    <contour>
      <point x="250" y="1090" type="line"/>
      <point x="63" y="915" type="line" smooth="yes"/>
      <point x="58" y="911"/>
      <point x="54" y="908"/>
      <point x="51" y="911" type="curve" smooth="yes"/>
      <point x="49" y="913"/>
      <point x="50" y="917"/>
      <point x="54" y="923" type="curve" smooth="yes"/>
      <point x="212" y="1141" type="line" smooth="yes"/>
      <point x="224" y="1158"/>
      <point x="235" y="1166"/>
      <point x="249" y="1166" type="curve" smooth="yes"/>
      <point x="263" y="1166"/>
      <point x="274" y="1158"/>
      <point x="286" y="1141" type="curve" smooth="yes"/>
      <point x="444" y="923" type="line" smooth="yes"/>
      <point x="448" y="917"/>
      <point x="449" y="913"/>
      <point x="447" y="911" type="curve" smooth="yes"/>
      <point x="444" y="908"/>
      <point x="440" y="911"/>
      <point x="435" y="915" type="curve" smooth="yes"/>
      <point x="248" y="1090" type="line"/>
    </contour>
    <contour>
      <point x="363" y="1265" type="line" smooth="yes"/>
      <point x="335" y="1307"/>
      <point x="316" y="1333"/>
      <point x="290" y="1333" type="curve" smooth="yes"/>
      <point x="268" y="1333"/>
      <point x="256" y="1317"/>
      <point x="256" y="1299" type="curve" smooth="yes"/>
      <point x="256" y="1274"/>
      <point x="278" y="1253"/>
      <point x="308" y="1226" type="curve" smooth="yes"/>
      <point x="469" y="1085" type="line" smooth="yes"/>
      <point x="472" y="1082"/>
      <point x="476" y="1080"/>
      <point x="479" y="1083" type="curve" smooth="yes"/>
      <point x="481" y="1085"/>
      <point x="480" y="1089"/>
      <point x="477" y="1093" type="curve" smooth="yes"/>
    </contour>
  </outline>
</glyph>
<glyph name="circumflexhook" format="2">
  <advance width="498"/>
  <anchor x="252" y="1003" name="center"/>
  <outline>
    <contour>
      <point x="250" y="1090" type="line"/>
      <point x="63" y="915" type="line" smooth="yes"/>
      <point x="58" y="911"/>
      <point x="54" y="908"/>
      <point x="51" y="911" type="curve" smooth="yes"/>
      <point x="49" y="913"/>
      <point x="50" y="917"/>
      <point x="54" y="923" type="curve" smooth="yes"/>
      <point x="212" y="1141" type="line" smooth="yes"/>
      <point x="224" y="1158"/>
      <point x="235" y="1166.0"/>
      <point x="249" y="1166" type="curve" smooth="yes"/>
      <point x="263" y="1166.0"/>
      <point x="274" y="1158"/>
      <point x="286" y="1141" type="curve" smooth="yes"/>
      <point x="444" y="923" type="line" smooth="yes"/>
      <point x="448" y="917"/>
      <point x="449" y="913"/>
      <point x="447" y="911" type="curve" smooth="yes"/>
      <point x="444" y="908"/>
      <point x="440" y="911"/>
      <point x="435" y="915" type="curve" smooth="yes"/>
      <point x="248" y="1090" type="line"/>
    </contour>
    <contour>
      <point x="428" y="1101" type="curve" smooth="yes"/>
      <point x="428" y="1104"/>
      <point x="430" y="1105"/>
      <point x="435" y="1106" type="curve" smooth="yes"/>
      <point x="520" y="1122"/>
      <point x="553" y="1180"/>
      <point x="553" y="1250" type="curve" smooth="yes"/>
      <point x="553.0" y="1330.0"/>
      <point x="522" y="1370.0"/>
      <point x="464" y="1370" type="curve" smooth="yes"/>
      <point x="405" y="1370.0"/>
      <point x="380.0" y="1329.0"/>
      <point x="380" y="1274" type="curve" smooth="yes"/>
      <point x="380" y="1251" type="line" smooth="yes"/>
      <point x="380" y="1224"/>
      <point x="365" y="1208"/>
      <point x="344" y="1208" type="curve" smooth="yes"/>
      <point x="324" y="1208"/>
      <point x="312" y="1228"/>
      <point x="312" y="1251" type="curve" smooth="yes"/>
      <point x="312.0" y="1322.0"/>
      <point x="381" y="1382.0"/>
      <point x="465" y="1382" type="curve" smooth="yes"/>
      <point x="548" y="1382.0"/>
      <point x="609.0" y="1333.0"/>
      <point x="609" y="1250" type="curve" smooth="yes"/>
      <point x="609" y="1167"/>
      <point x="549" y="1112"/>
      <point x="435" y="1097" type="curve" smooth="yes"/>
      <point x="430" y="1096"/>
      <point x="428" y="1098"/>
    </contour>
  </outline>
</glyph>
<glyph name="gravedouble.cap" format="2">
  <advance width="545"/>
  <anchor x="387" y="911" name="center"/>
  <outline>
    <contour>
      <point x="163" y="1136" type="line" smooth="yes"/>
      <point x="132" y="1178"/>
      <point x="108" y="1206"/>
      <point x="81" y="1201" type="curve" smooth="yes"/>
      <point x="61" y="1197"/>
      <point x="50" y="1182"/>
      <point x="53" y="1164" type="curve" smooth="yes"/>
      <point x="58" y="1137"/>
      <point x="79" y="1120"/>
      <point x="108" y="1097" type="curve" smooth="yes"/>
      <point x="261" y="979" type="line" smooth="yes"/>
      <point x="266" y="976"/>
      <point x="269" y="975"/>
      <point x="272" y="978" type="curve" smooth="yes"/>
      <point x="273" y="980"/>
      <point x="273" y="983"/>
      <point x="269" y="988" type="curve" smooth="yes"/>
    </contour>
    <contour>
      <point x="388" y="1136" type="line" smooth="yes"/>
      <point x="357" y="1178"/>
      <point x="333" y="1206"/>
      <point x="305" y="1201" type="curve" smooth="yes"/>
      <point x="285" y="1197"/>
      <point x="275" y="1182"/>
      <point x="278" y="1164" type="curve" smooth="yes"/>
      <point x="283" y="1137"/>
      <point x="303" y="1120"/>
      <point x="333" y="1097" type="curve" smooth="yes"/>
      <point x="486" y="979" type="line" smooth="yes"/>
      <point x="491" y="976"/>
      <point x="494" y="975"/>
      <point x="497" y="978" type="curve" smooth="yes"/>
      <point x="498" y="980"/>
      <point x="498" y="983"/>
      <point x="494" y="988" type="curve" smooth="yes"/>
    </contour>
  </outline>
</glyph>
<glyph name="ring.cap" format="2">
  <advance width="375"/>
  <outline>
    <contour>
      <point x="188" y="970" type="curve" smooth="yes"/>
      <point x="263" y="970"/>
      <point x="325" y="1032"/>
      <point x="325" y="1108" type="curve" smooth="yes"/>
      <point x="325" y="1183"/>
      <point x="263" y="1245"/>
      <point x="188" y="1245" type="curve" smooth="yes"/>
      <point x="112" y="1245"/>
      <point x="50" y="1183"/>
      <point x="50" y="1108" type="curve" smooth="yes"/>
      <point x="50" y="1032"/>
      <point x="112" y="970"/>
    </contour>
    <contour>
      <point x="188" y="1214" type="curve" smooth="yes"/>
      <point x="246" y="1214"/>
      <point x="291" y="1167"/>
      <point x="291" y="1108" type="curve" smooth="yes"/>
      <point x="291" y="1049"/>
      <point x="246" y="1001"/>
      <point x="188" y="1001" type="curve" smooth="yes"/>
      <point x="131" y="1001"/>
      <point x="84" y="1049"/>
      <point x="84" y="1108" type="curve" smooth="yes"/>
      <point x="84" y="1167"/>
      <point x="131" y="1214"/>
    </contour>
  </outline>
</glyph>
<glyph name="scedilla.alt" format="2">
  <advance width="687"/>
  <outline>
    <contour>
      <point x="341" y="-15" type="line"/>
      <point x="290" y="-124" type="line" smooth="yes"/>
      <point x="286" y="-132"/>
      <point x="288" y="-137"/>
      <point x="296" y="-137" type="curve" smooth="yes"/>
      <point x="330" y="-137" type="line" smooth="yes"/>
      <point x="396" y="-137"/>
      <point x="428" y="-189"/>
      <point x="428" y="-257" type="curve" smooth="yes"/>
      <point x="428" y="-333"/>
      <point x="396" y="-372"/>
      <point x="340" y="-372" type="curve" smooth="yes"/>
      <point x="284" y="-372"/>
      <point x="231" y="-347"/>
      <point x="219" y="-287" type="curve" smooth="yes"/>
      <point x="218" y="-281"/>
      <point x="216" y="-278"/>
      <point x="212" y="-279" type="curve" smooth="yes"/>
      <point x="208" y="-280"/>
      <point x="207" y="-283"/>
      <point x="208" y="-289" type="curve" smooth="yes"/>
      <point x="219" y="-344"/>
      <point x="272" y="-384"/>
      <point x="345" y="-384" type="curve" smooth="yes"/>
      <point x="431" y="-384"/>
      <point x="492" y="-329"/>
      <point x="492" y="-251" type="curve" smooth="yes"/>
      <point x="492" y="-183"/>
      <point x="428" y="-125"/>
      <point x="330" y="-125" type="curve" smooth="yes"/>
      <point x="317" y="-125"/>
      <point x="312" y="-125"/>
      <point x="298" y="-125" type="curve"/>
      <point x="301" y="-131" type="line"/>
      <point x="355" y="-15" type="line"/>
    </contour>
    <component base="s.alt"/>
  </outline>
</glyph>
